<svg width="32" height="32" viewBox="0 0 32 32" fill="none" xmlns="http://www.w3.org/2000/svg">
<path d="M14.072 8.32L9.56136 3.11333C9.04136 2.51333 8.08802 2.516 7.48402 3.12133L3.77469 6.83733C2.67069 7.94266 2.35469 9.584 2.99336 10.9C6.80885 18.8 13.1801 25.1801 21.0747 29.0067C22.3894 29.6453 24.0294 29.3293 25.1334 28.224L28.8774 24.4733C29.484 23.8667 29.4854 22.908 28.88 22.388L23.6534 17.9013C23.1067 17.432 22.2574 17.4933 21.7094 18.0427L19.8907 19.864C19.7976 19.9616 19.675 20.0259 19.5418 20.0471C19.4086 20.0683 19.2722 20.0452 19.1534 19.9813C16.1806 18.2695 13.7147 15.8003 12.0067 12.8253C11.9427 12.7063 11.9196 12.5696 11.9408 12.4362C11.962 12.3028 12.0263 12.18 12.124 12.0867L13.9374 10.272C14.4867 9.72 14.5467 8.86666 14.072 8.31866V8.32Z" stroke="#07628F" stroke-width="2" stroke-linecap="round" stroke-linejoin="round"/>
</svg>
