<svg width="32" height="32" viewBox="0 0 32 32" fill="none" xmlns="http://www.w3.org/2000/svg">
<path fill-rule="evenodd" clip-rule="evenodd" d="M18.6666 8V5.33333H13.3333V8H18.6666ZM5.33329 10.6667V25.3333H26.6666V10.6667H5.33329ZM26.6666 8C28.1466 8 29.3333 9.18667 29.3333 10.6667V25.3333C29.3333 26.8133 28.1466 28 26.6666 28H5.33329C3.85329 28 2.66663 26.8133 2.66663 25.3333L2.67996 10.6667C2.67996 9.18667 3.85329 8 5.33329 8H10.6666V5.33333C10.6666 3.85333 11.8533 2.66666 13.3333 2.66666H18.6666C20.1466 2.66666 21.3333 3.85333 21.3333 5.33333V8H26.6666Z" fill="#07628F"/>
</svg>
