<svg width="32" height="32" viewBox="0 0 32 32" fill="none" xmlns="http://www.w3.org/2000/svg">
<g clip-path="url(#clip0_16_976)">
<path d="M18.2418 3.17043C17.5416 2.83873 16.7765 2.66666 16.0018 2.66666C15.227 2.66666 14.4619 2.83873 13.7618 3.17043L0.764443 9.32776C0.525222 9.44062 0.324973 9.62207 0.189166 9.84905C0.0533586 10.076 -0.0118702 10.3383 0.00177613 10.6024V10.6718V18.6718C0.00177613 19.0254 0.142252 19.3645 0.3923 19.6146C0.642349 19.8646 0.981487 20.0051 1.33511 20.0051C1.68873 20.0051 2.02787 19.8646 2.27792 19.6146C2.52797 19.3645 2.66844 19.0254 2.66844 18.6718V12.6824L5.33511 14.0051V21.3384C5.33515 21.5138 5.36979 21.6875 5.43706 21.8495C5.50432 22.0115 5.60289 22.1586 5.72711 22.2824L5.79378 22.3464L5.95378 22.4931C6.78953 23.2379 7.69301 23.903 8.65244 24.4798C10.4338 25.5518 13.0071 26.6718 16.0018 26.6718C18.9964 26.6718 21.5698 25.5518 23.3538 24.4798C24.3132 23.903 25.2167 23.2379 26.0524 22.4931L26.2124 22.3464L26.2738 22.2824H26.2791C26.4032 22.1581 26.5014 22.0104 26.5682 21.8479C26.6351 21.6855 26.6691 21.5114 26.6684 21.3358V14.0024L31.2604 11.7251C31.4849 11.6139 31.6735 11.4418 31.8047 11.2284C31.9358 11.0149 32.0042 10.7689 32.002 10.5184C31.9998 10.2679 31.927 10.0231 31.7921 9.81208C31.6572 9.60103 31.4655 9.43226 31.2391 9.3251L18.2418 3.16776V3.17043ZM18.3271 18.1438L24.0018 15.3278V20.7464C23.3692 21.283 22.6941 21.7672 21.9831 22.1944C20.4364 23.1224 18.3404 24.0051 16.0018 24.0051C13.6631 24.0051 11.5698 23.1251 10.0204 22.1944C9.30945 21.7672 8.63434 21.283 8.00178 20.7464V15.3278L13.6764 18.1438C15.1431 18.8691 16.8604 18.8691 18.3271 18.1438ZM17.1004 5.58109L27.6124 10.5598L17.1404 15.7544C16.7865 15.9298 16.3968 16.021 16.0018 16.021C15.6068 16.021 15.2171 15.9298 14.8631 15.7544L4.39111 10.5598L14.9031 5.58109C15.2465 5.41835 15.6218 5.33392 16.0018 5.33392C16.3818 5.33392 16.757 5.41835 17.1004 5.58109ZM5.73244 22.2878L5.72978 22.2851L5.73244 22.2878Z" fill="#07628F"/>
</g>
<defs>
<clipPath id="clip0_16_976">
<rect width="32" height="32" fill="white"/>
</clipPath>
</defs>
</svg>
