<svg width="24" height="24" viewBox="0 0 24 24" fill="none" xmlns="http://www.w3.org/2000/svg">
<path d="M24 16.125C24 18.4031 22.7351 20.25 20.25 20.25H3.75C1.26488 20.25 0 18.4031 0 16.125V7.875C0 5.59688 1.26488 3.75 3.75 3.75H20.25C22.7351 3.75 24 5.59688 24 7.875V16.125Z" fill="#128807"/>
<path d="M21.4274 12.2962L12.0562 18.8812L2.68457 12.2962L12.0562 5.71124L21.4274 12.2962Z" fill="#F9CB38"/>
<path fill-rule="evenodd" clip-rule="evenodd" d="M15.7538 13.443C15.3271 14.8931 13.9917 15.9971 12.4797 16.1471C10.4596 16.3492 8.69218 15.0652 8.26243 13.0804C8.13528 12.4971 8.1515 11.8916 8.30968 11.316C8.36856 11.2522 8.44993 11.2369 8.53093 11.2256C9.12178 11.1436 9.71907 11.1176 10.3148 11.148C10.9504 11.184 11.5808 11.2721 12.1936 11.4454C12.8224 11.6235 13.4314 11.856 14.0063 12.165C14.4389 12.3948 14.8522 12.6595 15.2419 12.9562C15.3739 13.0586 15.5086 13.1591 15.6353 13.2682C15.6919 13.317 15.7362 13.3695 15.7534 13.443" fill="#002776"/>
<path fill-rule="evenodd" clip-rule="evenodd" d="M8.52161 10.7291C9.00573 9.64724 9.82211 8.92686 10.9505 8.58861C13.223 7.90724 15.5544 9.40911 15.8922 11.7514C15.9447 12.1132 15.947 12.4762 15.8915 12.8389C15.8341 12.8602 15.7914 12.8299 15.752 12.7972C15.3401 12.4607 14.9007 12.1594 14.4384 11.8965C14.0823 11.6944 13.7124 11.518 13.3314 11.3685C13.2639 11.3419 13.1791 11.328 13.1559 11.2376C13.1802 11.1941 13.211 11.1562 13.2477 11.121C13.2609 11.1075 13.28 11.0944 13.2624 11.0719C13.2564 11.0647 13.244 11.0647 13.2335 11.0659C13.2054 11.0689 13.2091 11.0884 13.2102 11.109C13.2125 11.1761 13.1735 11.2192 13.1221 11.2537C13.031 11.2744 12.9436 11.247 12.8697 11.2076C12.6582 11.0966 12.4242 11.0587 12.2004 10.9969C11.8512 10.902 11.4927 10.8484 11.135 10.7925C10.8495 10.7469 10.5621 10.7141 10.2736 10.6942C10.0111 10.6759 9.74373 10.6785 9.47936 10.6965C9.19098 10.7167 8.90186 10.737 8.61498 10.7715C8.59699 10.7741 8.57863 10.7715 8.56208 10.764C8.54552 10.7565 8.53148 10.7444 8.52161 10.7291" fill="#002776"/>
<path fill-rule="evenodd" clip-rule="evenodd" d="M13.1588 11.2144C13.1573 11.2601 13.1982 11.2541 13.223 11.2639C14.1913 11.6406 15.0919 12.1725 15.8892 12.8389C15.8662 13.0446 15.8207 13.2472 15.7535 13.443C15.2843 13.0537 14.804 12.6829 14.2726 12.3799C12.593 11.4232 10.7945 11.0441 8.87183 11.2474C8.68433 11.2665 8.49683 11.292 8.30933 11.3149C8.3577 11.112 8.4192 10.9129 8.52008 10.7284C9.9237 10.539 11.303 10.6466 12.6563 11.0655C12.8243 11.1176 12.9845 11.2016 13.1637 11.2174L13.1588 11.2132" fill="#FEFEFE"/>
<path fill-rule="evenodd" clip-rule="evenodd" d="M14.9063 13.6312C14.7934 13.6192 14.9161 13.7576 14.8021 13.7546C14.7027 13.7531 14.6974 13.6736 14.6487 13.6294C14.6862 13.5904 14.7526 13.5825 14.7736 13.5217C14.7878 13.5859 14.8482 13.5994 14.9063 13.6312Z" fill="#D9DFEA"/>
<path fill-rule="evenodd" clip-rule="evenodd" d="M10.6478 14.325C10.5417 14.3374 10.6305 14.4529 10.5417 14.4548C10.452 14.4566 10.4059 14.3903 10.3879 14.3216C10.3815 14.3021 10.4678 14.2586 10.5102 14.2264C10.5154 14.2943 10.5859 14.2913 10.6478 14.325Z" fill="#E9ECF3"/>
<path fill-rule="evenodd" clip-rule="evenodd" d="M12.0525 14.1161C11.9051 14.2114 12.024 13.9961 11.9374 14.0171C11.9655 13.9721 12.045 13.9826 12.0503 13.9136C12.0878 13.9526 12.1196 13.9976 12.1793 14.0059C12.0941 13.9942 12.1868 14.1832 12.0525 14.1161" fill="#EDEFF5"/>
<path fill-rule="evenodd" clip-rule="evenodd" d="M9.0076 11.5894C8.97235 11.6565 8.94573 11.7315 8.83885 11.6865C8.7841 11.6636 8.8426 11.5886 8.77698 11.5815L8.89848 11.4746C8.90673 11.4922 8.91648 11.5091 8.92473 11.5267C8.93448 11.5714 9.02335 11.5121 9.0076 11.5894" fill="#F0F2F6"/>
<path fill-rule="evenodd" clip-rule="evenodd" d="M9.34771 13.2187C9.29183 13.2364 9.33196 13.3834 9.21196 13.3192C9.19996 13.3132 9.14746 13.3421 9.15721 13.3252C9.18871 13.2637 9.11821 13.2337 9.12908 13.1846C9.19471 13.2131 9.19096 13.0931 9.25808 13.1254C9.26296 13.1291 9.26296 13.1441 9.26633 13.1539C9.27346 13.2004 9.36421 13.1422 9.34771 13.2187Z" fill="#ECEFF4"/>
<path fill-rule="evenodd" clip-rule="evenodd" d="M8.75785 13.653C8.64272 13.6931 8.7286 13.554 8.6626 13.5551C8.69335 13.5293 8.72785 13.4809 8.7586 13.4827C8.79535 13.4846 8.8291 13.53 8.86285 13.5559C8.8126 13.5728 8.86547 13.7089 8.75785 13.653" fill="#D9DFEA"/>
<path fill-rule="evenodd" clip-rule="evenodd" d="M13.2075 14.9801C13.0857 15.0356 13.2042 14.8717 13.1228 14.8931C13.1145 14.8305 13.2162 14.8684 13.2034 14.8024L13.3133 14.8905C13.2687 14.9107 13.3133 15.0382 13.2075 14.9801" fill="#D8DEEA"/>
<path fill-rule="evenodd" clip-rule="evenodd" d="M13.9875 14.8897C13.8867 14.9317 13.9485 14.796 13.8942 14.7825C13.9309 14.7589 13.9695 14.7337 14.0055 14.7094C14.0085 14.7649 14.0847 14.7446 14.0929 14.7937C14.0363 14.7971 14.0952 14.9194 13.9875 14.8897" fill="#DCE1EC"/>
<path fill-rule="evenodd" clip-rule="evenodd" d="M14.6888 14.385C14.574 14.4431 14.6588 14.2905 14.5931 14.2969C14.6063 14.2481 14.6816 14.2665 14.6861 14.2102L14.7938 14.2909C14.7281 14.289 14.8088 14.4499 14.6888 14.385" fill="#DCE1EC"/>
<path fill-rule="evenodd" clip-rule="evenodd" d="M10.0437 13.6849C9.92366 13.7527 10.002 13.6009 9.94653 13.5979C9.95216 13.542 10.0369 13.566 10.0407 13.5067C10.0519 13.5615 10.1247 13.5457 10.1404 13.5949C10.0688 13.5844 10.1708 13.7565 10.0437 13.6849" fill="#D4DAE7"/>
<path fill-rule="evenodd" clip-rule="evenodd" d="M10.5301 12.5456C10.4622 12.5411 10.5492 12.4342 10.4659 12.441C10.4802 12.381 10.5443 12.3934 10.5796 12.3622C10.5976 12.4001 10.6486 12.4087 10.6512 12.4631C10.6572 12.5625 10.5691 12.5111 10.5301 12.5456" fill="#F2F4F7"/>
<path fill-rule="evenodd" clip-rule="evenodd" d="M12.5063 13.3376C12.4024 13.3972 12.4572 13.2641 12.4092 13.2495C12.4418 13.2225 12.4733 13.1951 12.5063 13.1674C12.5086 13.2229 12.6147 13.2105 12.5847 13.2532C12.5667 13.2787 12.6248 13.3954 12.5063 13.3376Z" fill="#E6E9F1"/>
<path fill-rule="evenodd" clip-rule="evenodd" d="M12.0413 13.0035C11.9228 13.0155 12.045 12.9079 11.9681 12.9105C11.9981 12.8824 12.027 12.8344 12.0608 12.8314C12.09 12.8284 12.1238 12.876 12.1556 12.9022C12.114 12.9424 12.1204 13.0459 12.0413 13.0035" fill="#EAEDF3"/>
<path fill-rule="evenodd" clip-rule="evenodd" d="M14.9183 13.8787C14.9427 13.9432 14.9907 13.9518 15.0282 13.9747C14.9899 14.0178 14.9749 14.0838 14.8954 14.0838C14.814 14.0846 14.8692 14.0227 14.8508 13.9938C14.8054 13.9218 14.973 13.9826 14.9183 13.8787" fill="#E4E8F0"/>
<path fill-rule="evenodd" clip-rule="evenodd" d="M14.0693 15.1852C14.0408 15.2276 14.0603 15.2681 13.9845 15.2696C13.8979 15.2711 13.9257 15.2077 13.9219 15.1882C13.9148 15.156 13.9643 15.1252 13.9928 15.1316C14.0175 15.1361 14.0655 15.15 14.0693 15.1852Z" fill="#CED5E4"/>
<path fill-rule="evenodd" clip-rule="evenodd" d="M10.0178 13.9837C9.95594 13.9909 10.0073 14.0719 9.92894 14.0692C9.85731 14.067 9.86781 14.0186 9.85994 13.9894C9.84756 13.9485 9.90794 13.9496 9.92144 13.9189C9.94994 13.9387 9.97881 13.9586 10.0178 13.9837" fill="#DAE0EB"/>
<path fill-rule="evenodd" clip-rule="evenodd" d="M13.9014 14.412C13.928 14.3921 13.9546 14.3737 13.9827 14.355C13.985 14.3966 14.0746 14.3726 14.0446 14.4259C14.0322 14.4472 14.0626 14.5057 13.985 14.5005C13.9152 14.4956 13.9317 14.4469 13.9014 14.412Z" fill="#D8DEE9"/>
<path fill-rule="evenodd" clip-rule="evenodd" d="M13.6164 14.5406C13.6029 14.6145 13.5609 14.6265 13.5147 14.6351C13.4364 14.6482 13.4952 14.5894 13.4825 14.5669C13.4495 14.5106 13.5327 14.5215 13.5425 14.4847C13.5642 14.5132 13.6141 14.5125 13.6164 14.5406Z" fill="#CBD2E3"/>
<path fill-rule="evenodd" clip-rule="evenodd" d="M13.1775 12.1087C13.1513 12.1211 13.1861 12.1837 13.1299 12.1657C13.0871 12.1511 13.0346 12.1309 13.0384 12.0784C13.0399 12.0581 13.0909 12.0412 13.1194 12.0236C13.1243 12.0615 13.2053 12.0491 13.1775 12.1087Z" fill="#D1D8E6"/>
<path fill-rule="evenodd" clip-rule="evenodd" d="M15.2997 13.7535C15.2292 13.7813 15.261 13.7231 15.2487 13.7063C15.2014 13.6421 15.2948 13.6515 15.2997 13.6133C15.3285 13.6324 15.3848 13.6541 15.3825 13.6706C15.3809 13.6921 15.3716 13.7122 15.3564 13.7274C15.3412 13.7426 15.3211 13.7519 15.2997 13.7535" fill="#DADFEA"/>
<path fill-rule="evenodd" clip-rule="evenodd" d="M11.6738 13.1812C11.6738 13.2247 11.7616 13.2075 11.732 13.2619C11.72 13.284 11.7455 13.3432 11.6847 13.3309C11.6386 13.3215 11.5921 13.2945 11.5906 13.2487C11.5906 13.2274 11.6438 13.2045 11.6738 13.1812Z" fill="#CAD2E2"/>
<path fill-rule="evenodd" clip-rule="evenodd" d="M12.8738 14.538C12.8393 14.5219 12.8378 14.4765 12.84 14.4547C12.8438 14.4259 12.8824 14.3869 12.9154 14.4026C12.9357 14.4124 12.993 14.4067 12.9792 14.4592C12.9664 14.5095 12.9162 14.5166 12.8738 14.538Z" fill="#D0D7E5"/>
<path fill-rule="evenodd" clip-rule="evenodd" d="M14.3251 14.472C14.3266 14.4716 14.3528 14.4352 14.3824 14.4345C14.4038 14.4337 14.4256 14.478 14.4484 14.5027C14.4177 14.5114 14.4439 14.568 14.3832 14.5672C14.3284 14.5661 14.3284 14.5414 14.3251 14.472Z" fill="#EFF2F6"/>
<path fill-rule="evenodd" clip-rule="evenodd" d="M11.9123 13.5225C11.9022 13.563 11.9022 13.5881 11.8662 13.5874C11.8294 13.5866 11.8114 13.5731 11.8122 13.5356C11.8122 13.506 11.8317 13.4854 11.8538 13.4872C11.8793 13.4891 11.9157 13.4962 11.9123 13.5225" fill="#CCD4E3"/>
<path fill-rule="evenodd" clip-rule="evenodd" d="M9.61285 12.939C9.63085 12.9585 9.65148 12.9739 9.65935 12.9937C9.6661 13.0102 9.6556 13.0354 9.63235 13.038C9.60648 13.0402 9.57873 13.0395 9.57048 13.0072C9.56298 12.9757 9.59035 12.9645 9.61285 12.939Z" fill="#E0E5EE"/>
<path fill-rule="evenodd" clip-rule="evenodd" d="M9.34773 13.2188C9.33761 13.1756 9.27086 13.203 9.26636 13.1535C9.28061 13.191 9.39198 13.1074 9.34773 13.2188Z" fill="#7085B1"/>
<path fill-rule="evenodd" clip-rule="evenodd" d="M9.00756 11.5894C8.99931 11.5432 8.92843 11.5796 8.92468 11.5267C8.94456 11.5582 9.04506 11.4836 9.00756 11.5894Z" fill="#5C75A7"/>
<path fill-rule="evenodd" clip-rule="evenodd" d="M13.1663 11.2185C13.1734 11.19 13.1963 11.1435 13.1873 11.1349C13.065 11.0261 13.2282 11.0077 13.2525 10.9856C13.2972 10.9425 13.29 11.1244 13.4078 11.0092C13.3444 11.1499 13.2597 11.1904 13.1622 11.2144L13.1663 11.2185Z" fill="#E7EAF2"/>
<path fill-rule="evenodd" clip-rule="evenodd" d="M9.5517 11.1019C9.43245 11.0902 9.53857 10.935 9.5127 10.845C9.48045 10.7287 9.5652 10.7302 9.6477 10.7299C9.77557 10.7291 9.84795 10.7831 9.84795 10.9181C9.84757 11.0509 9.78607 11.1034 9.5517 11.1019Z" fill="#15A24A"/>
<path fill-rule="evenodd" clip-rule="evenodd" d="M14.1079 11.8511C14.0817 11.9314 13.9846 11.9816 13.9681 12.0806C13.9666 12.0937 13.9291 12.0911 13.9219 12.0529C13.8919 11.8736 13.8904 11.874 13.7581 11.97C13.7476 11.9779 13.7292 11.985 13.7191 11.9816C13.6996 11.973 13.6917 11.9535 13.7033 11.9314C13.7472 11.8459 13.7884 11.7581 13.8376 11.6752C13.8706 11.6205 13.9107 11.6662 13.9429 11.682C14.0138 11.7169 14.1012 11.7367 14.1079 11.8511" fill="#13A248"/>
<path fill-rule="evenodd" clip-rule="evenodd" d="M14.4436 12.1429C14.3746 12.1706 14.3412 12.1185 14.2969 12.0998C14.2669 12.087 14.2388 12.075 14.2186 12.1084C14.1964 12.1436 14.2186 12.1639 14.2489 12.1796C14.2722 12.1913 14.2969 12.2003 14.3142 12.2186C14.3446 12.2505 14.4398 12.2419 14.4012 12.3098C14.3708 12.3638 14.3198 12.3008 14.2861 12.2809C14.2279 12.2453 14.1128 12.2258 14.1252 12.1639C14.1443 12.0645 14.2009 11.9565 14.2763 11.8882C14.3367 11.8335 14.4034 11.937 14.4713 11.9629C14.5006 11.9738 14.5504 11.9835 14.5418 12.0296C14.5336 12.0773 14.4983 12.0495 14.4713 12.0431C14.4079 12.0285 14.3464 11.9213 14.2966 11.9955C14.2666 12.0398 14.3899 12.0581 14.4289 12.1069C14.4349 12.114 14.4364 12.1238 14.4436 12.1429" fill="#11A147"/>
<path fill-rule="evenodd" clip-rule="evenodd" d="M15.2517 12.6731C15.2629 12.7609 15.2273 12.8205 15.1354 12.8055C15.0402 12.7898 14.9678 12.7316 14.9513 12.6274C14.9498 12.6169 14.9625 12.5955 14.973 12.5925C14.9791 12.5905 14.9855 12.5899 14.9918 12.5907C14.9981 12.5914 15.0042 12.5935 15.0096 12.5969C15.015 12.6003 15.0196 12.6048 15.0231 12.6101C15.0265 12.6154 15.0288 12.6215 15.0297 12.6278C15.0417 12.6994 15.0792 12.7313 15.1545 12.7328C15.1692 12.6154 14.9573 12.5618 15.0792 12.4399C15.1403 12.3788 15.2149 12.4294 15.2682 12.4785C15.3173 12.5231 15.3773 12.5723 15.2877 12.636C15.2749 12.6293 15.2577 12.6184 15.2483 12.6259C15.2292 12.6386 15.2479 12.657 15.2517 12.6731Z" fill="#11A147"/>
<path fill-rule="evenodd" clip-rule="evenodd" d="M12.6615 11.5564C12.6169 11.5312 12.6192 11.5072 12.6263 11.481C12.6405 11.4251 12.6117 11.3959 12.5607 11.3801C12.5097 11.3636 12.4703 11.3659 12.4564 11.4296C12.4515 11.4581 12.4365 11.478 12.4054 11.4675C12.3694 11.4544 12.3874 11.4251 12.3942 11.4037C12.4084 11.3546 12.4212 11.3051 12.4437 11.2582C12.4639 11.2114 12.4497 11.1255 12.5235 11.1311C12.6019 11.1367 12.6867 11.1555 12.7463 11.2204C12.7729 11.2489 12.7838 11.298 12.762 11.3194C12.6987 11.3846 12.7039 11.4769 12.6615 11.5564Z" fill="#0FA046"/>
<path fill-rule="evenodd" clip-rule="evenodd" d="M10.3475 11.079C10.2263 11.1247 10.1307 11.0981 10.0373 11.1C9.99496 11.1011 9.99121 11.0692 9.99121 11.037C9.99421 11.0014 9.99421 10.9654 9.99421 10.9297C9.99871 10.7321 10.0688 10.6815 10.2631 10.7366C10.2848 10.7426 10.3055 10.7464 10.307 10.7707C10.307 10.8045 10.2826 10.8105 10.2526 10.8097C10.2485 10.809 10.2436 10.8079 10.2383 10.8086C10.1802 10.8229 10.076 10.7572 10.0741 10.8442C10.0718 10.911 10.1855 10.8637 10.2436 10.8862C10.2518 10.8896 10.2608 10.8971 10.2736 10.9065C10.2368 10.9729 10.1757 10.9357 10.1285 10.9436C10.1003 10.9481 10.0636 10.9357 10.0595 10.9815C10.0542 11.0355 10.0917 11.0329 10.1285 11.0366C10.1911 11.0441 10.259 11.0205 10.3475 11.079" fill="#0B9F43"/>
<path fill-rule="evenodd" clip-rule="evenodd" d="M9.35183 11.1075C9.28658 11.0932 9.29558 11.0557 9.28433 11.0295C9.26483 10.9811 9.22621 10.9811 9.18383 10.9845C9.13546 10.989 9.10921 11.0077 9.11333 11.0614C9.11633 11.0876 9.12683 11.13 9.07808 11.124C9.03608 11.1187 9.04808 11.0779 9.04583 11.0501C9.04208 11.0047 9.03758 10.9582 9.04208 10.9132C9.04808 10.863 9.00008 10.7861 9.07246 10.7681C9.14708 10.7486 9.23333 10.7347 9.31096 10.7719C9.34471 10.788 9.37133 10.8274 9.35896 10.8592C9.33046 10.9395 9.35296 11.0209 9.35183 11.1075" fill="#079D3F"/>
<path fill-rule="evenodd" clip-rule="evenodd" d="M8.56018 10.98C8.57218 10.8784 8.61681 10.7959 8.72818 10.7996C8.83506 10.803 8.89206 10.8772 8.89206 10.9841C8.89206 11.0902 8.84256 11.1634 8.72968 11.1626C8.61493 11.1619 8.57593 11.0786 8.56018 10.98Z" fill="#15A24A"/>
<path fill-rule="evenodd" clip-rule="evenodd" d="M15.699 12.885C15.6885 12.9859 15.6387 13.062 15.5235 13.0721C15.4174 13.0807 15.3612 13.02 15.3529 12.9202C15.3435 12.8194 15.4425 12.723 15.5434 12.7237C15.6319 12.7245 15.6968 12.7886 15.699 12.885Z" fill="#11A147"/>
<path fill-rule="evenodd" clip-rule="evenodd" d="M13.5938 11.7113C13.6785 11.7795 13.5758 11.8245 13.572 11.8819C13.5015 11.8493 13.4134 11.8624 13.3564 11.8005C13.2957 11.7345 13.3069 11.6599 13.3467 11.5871C13.3905 11.5103 13.458 11.4773 13.5409 11.5065C13.6167 11.5335 13.6733 11.5845 13.6365 11.6805C13.5784 11.691 13.5308 11.6145 13.449 11.6659C13.5034 11.691 13.5687 11.6561 13.5938 11.7113" fill="#0C9F43"/>
<path fill-rule="evenodd" clip-rule="evenodd" d="M11.5539 10.9387C11.5044 10.9969 11.468 10.9744 11.4339 10.9751C11.4009 10.9751 11.3656 10.9477 11.3247 10.9819C11.3615 11.0419 11.4504 11.0032 11.4849 11.0629C11.48 11.0715 11.4777 11.0831 11.4714 11.0891C11.4219 11.1281 11.3427 11.0336 11.312 11.1116C11.2839 11.1787 11.3577 11.1555 11.3896 11.1667C11.4256 11.181 11.4702 11.1757 11.5137 11.2245C11.4129 11.2687 11.2925 11.2481 11.2509 11.1994C11.1852 11.1225 11.2314 10.986 11.2812 10.9177C11.3401 10.8371 11.4477 10.9159 11.5539 10.9387" fill="#19A44D"/>
<path fill-rule="evenodd" clip-rule="evenodd" d="M12.1932 11.265C12.1081 11.256 12.0113 11.196 11.987 11.3362C11.9862 11.3407 11.9566 11.3471 11.9476 11.3411C11.9375 11.3355 11.9318 11.3145 11.9337 11.3025C11.9558 11.2136 11.9671 11.1184 12.0065 11.0385C12.0522 10.9485 12.1298 11.0246 12.194 11.0332C12.2705 11.0434 12.3128 11.0899 12.3046 11.1705C12.2971 11.2399 12.2446 11.2586 12.1932 11.265" fill="#0D9F44"/>
<path fill-rule="evenodd" clip-rule="evenodd" d="M13.2076 11.4799C13.1993 11.5927 13.1438 11.6707 13.0309 11.6741C12.9301 11.6779 12.8734 11.607 12.8757 11.5065C12.8787 11.3977 12.9316 11.319 13.0489 11.3156C13.1566 11.3118 13.1982 11.3842 13.2076 11.4799" fill="#0FA046"/>
<path fill-rule="evenodd" clip-rule="evenodd" d="M10.6797 11.0726C10.6673 11.0992 10.6572 11.1371 10.6215 11.1285C10.5597 11.1139 10.5874 11.0542 10.5724 11.0152C10.5267 10.9706 10.5387 11.0321 10.5244 11.0434C10.5192 11.0711 10.5319 11.1135 10.4944 11.1191C10.4483 11.1247 10.4592 11.0805 10.4603 11.0542C10.464 10.9995 10.4648 10.9421 10.4798 10.8896C10.4929 10.8446 10.4453 10.7617 10.5349 10.761C10.614 10.7606 10.5968 10.8412 10.6069 10.8896C10.6174 10.9451 10.623 10.9687 10.6684 10.9136C10.7153 10.9012 10.725 10.9354 10.7359 10.9684C10.7419 11.0164 10.7205 11.0497 10.6797 11.0726" fill="#0EA044"/>
<path fill-rule="evenodd" clip-rule="evenodd" d="M14.6738 12.45C14.7016 12.45 14.7297 12.4867 14.7567 12.4553C14.7773 12.4316 14.7589 12.4084 14.7406 12.3892C14.7271 12.3746 14.7128 12.3607 14.7001 12.345C14.6618 12.2989 14.6082 12.2546 14.6611 12.1879C14.7091 12.1268 14.7649 12.1418 14.8204 12.1804C14.8306 12.1999 14.8272 12.2186 14.8167 12.2363C14.7758 12.3004 14.8519 12.3394 14.8504 12.3941C14.8621 12.4455 14.8696 12.4972 14.8129 12.5269C14.7424 12.5644 14.6881 12.5299 14.6363 12.4849C14.6307 12.4552 14.6416 12.4406 14.6738 12.45" fill="#10A146"/>
<path fill-rule="evenodd" clip-rule="evenodd" d="M13.5938 11.7112C13.5649 11.7315 13.5068 11.6659 13.5087 11.7154C13.5124 11.8031 13.4686 11.7952 13.4277 11.7694C13.3726 11.7352 13.3696 11.6767 13.4044 11.6227C13.4382 11.5699 13.4858 11.5391 13.5436 11.5822C13.5788 11.6081 13.6054 11.6471 13.6358 11.6805L13.5938 11.7112" fill="#ECF7F0"/>
<path fill-rule="evenodd" clip-rule="evenodd" d="M10.7045 10.9837C10.6935 10.9606 10.6815 10.9379 10.6685 10.9159C10.6816 10.8825 10.6936 10.8487 10.7093 10.8165C10.7236 10.7861 10.7483 10.7692 10.7832 10.7805C10.8222 10.7936 10.8192 10.8236 10.817 10.8551C10.8087 10.947 10.8012 11.0385 10.7941 11.1304C10.7393 11.1652 10.7255 11.1334 10.7165 11.0861C10.7097 11.052 10.7273 11.0152 10.7045 10.9837Z" fill="#17A34C"/>
<path fill-rule="evenodd" clip-rule="evenodd" d="M14.8516 12.3937C14.8179 12.3592 14.7819 12.3266 14.7504 12.2899C14.7136 12.2464 14.7279 12.2197 14.7826 12.2126C14.8617 12.2302 14.9101 12.2685 14.8869 12.3592C14.876 12.3705 14.864 12.3825 14.8516 12.3937" fill="#D7EFE0"/>
<path fill-rule="evenodd" clip-rule="evenodd" d="M14.8868 12.3592C14.8505 12.312 14.8407 12.2445 14.7826 12.2126L14.8216 12.18C14.8846 12.2246 14.9997 12.2501 14.8868 12.3592Z" fill="#2BAB5B"/>
<path fill-rule="evenodd" clip-rule="evenodd" d="M15.2516 12.6731C15.2468 12.6701 15.2404 12.6686 15.2381 12.6645C15.2081 12.609 15.1088 12.5591 15.1425 12.51C15.1849 12.4507 15.2291 12.5209 15.2524 12.5715C15.2629 12.5929 15.2756 12.6139 15.2876 12.636C15.2753 12.6484 15.2629 12.6607 15.2516 12.6731" fill="#E6F5EC"/>
<path fill-rule="evenodd" clip-rule="evenodd" d="M14.6738 12.45C14.6618 12.4616 14.6502 12.4736 14.6363 12.4853C14.6206 12.474 14.5988 12.4661 14.5887 12.45C14.5696 12.4136 14.5148 12.3653 14.5782 12.3368C14.6314 12.3113 14.6314 12.3791 14.6487 12.4121C14.6558 12.426 14.6648 12.4376 14.6738 12.45Z" fill="#29AA59"/>
<path fill-rule="evenodd" clip-rule="evenodd" d="M10.7044 10.9837C10.7592 11.0051 10.7303 11.0509 10.7311 11.085C10.7341 11.1319 10.7506 11.1476 10.7944 11.1311C10.7029 11.2196 10.7146 11.1015 10.6793 11.0752C10.6887 11.0441 10.6958 11.0137 10.7044 10.9837" fill="#DDF1E4"/>
<path fill-rule="evenodd" clip-rule="evenodd" d="M10.5226 11.0437V10.923C10.5743 10.9395 10.5758 10.9758 10.5706 11.0156C10.5548 11.025 10.5383 11.034 10.5226 11.0437Z" fill="#6FC690"/>
<path fill-rule="evenodd" clip-rule="evenodd" d="M9.58801 10.92C9.59326 10.8652 9.56701 10.794 9.66039 10.8C9.72864 10.8041 9.77814 10.8315 9.78189 10.9095C9.78564 10.9935 9.73651 11.0276 9.65889 11.0332C9.56026 11.0411 9.60039 10.9635 9.58801 10.92" fill="#F5FBF7"/>
<path fill-rule="evenodd" clip-rule="evenodd" d="M13.9126 11.745C13.9516 11.7664 14.0112 11.7705 14.0239 11.8283C14.0303 11.8583 14.0044 11.8781 13.9778 11.8695C13.9283 11.8545 13.8627 11.8538 13.8559 11.784C13.8541 11.7638 13.8758 11.7383 13.9126 11.745Z" fill="#EFF8F3"/>
<path fill-rule="evenodd" clip-rule="evenodd" d="M12.6964 11.2837C12.6863 11.3227 12.6589 11.3362 12.6274 11.3246C12.5851 11.3092 12.5168 11.3261 12.5161 11.2519C12.5146 11.2132 12.5408 11.2016 12.5761 11.2132C12.6226 11.2282 12.6788 11.2264 12.6964 11.2837Z" fill="#DEF2E5"/>
<path fill-rule="evenodd" clip-rule="evenodd" d="M9.19318 10.8221C9.22993 10.8266 9.28806 10.8071 9.28431 10.8697C9.28056 10.9245 9.22506 10.9159 9.18531 10.9166C9.15343 10.9177 9.10768 10.9342 9.10468 10.8769C9.10243 10.8086 9.15568 10.83 9.19318 10.8221" fill="#F3FAF5"/>
<path fill-rule="evenodd" clip-rule="evenodd" d="M8.71883 10.8742C8.78671 10.8787 8.82046 10.9192 8.82308 10.983C8.82683 11.04 8.79871 11.0887 8.74021 11.094C8.67271 11.1004 8.64233 11.049 8.63858 10.9864C8.63483 10.9286 8.65733 10.8866 8.71883 10.8742" fill="#F3FAF6"/>
<path fill-rule="evenodd" clip-rule="evenodd" d="M15.6244 12.8981C15.6146 12.9604 15.5771 13.0042 15.5048 13.0042C15.4466 13.0035 15.4249 12.9611 15.4309 12.9097C15.4365 12.84 15.4781 12.795 15.549 12.7961C15.6049 12.7976 15.6266 12.8377 15.6244 12.8981" fill="#F9FCFA"/>
<path fill-rule="evenodd" clip-rule="evenodd" d="M12.1051 11.0805C12.1429 11.1038 12.2191 11.0798 12.2299 11.1548C12.2333 11.1833 12.2018 11.1979 12.1767 11.1923C12.1276 11.1814 12.0589 11.199 12.0529 11.1199C12.0518 11.0955 12.0627 11.0693 12.1051 11.0805Z" fill="#E7F5EC"/>
<path fill-rule="evenodd" clip-rule="evenodd" d="M13.1326 11.4889C13.1255 11.5537 13.0936 11.5991 13.028 11.5991C12.9635 11.5999 12.9406 11.5549 12.9436 11.4956C12.9489 11.4304 12.986 11.3869 13.0494 11.3842C13.1124 11.382 13.1326 11.4322 13.1326 11.4889" fill="#F5FBF7"/>
</svg>
