<svg width="42" height="42" viewBox="0 0 42 42" fill="none" xmlns="http://www.w3.org/2000/svg">
<g filter="url(#filter0_d_16_922)">
<path d="M5 28.8739C5 31.1529 6.84737 33 9.12612 33H32.8738C35.1529 33 37 31.1526 37 28.8739V5.12625C37 2.84712 35.1526 1 32.8739 1H9.12625C6.84712 1 5 2.84737 5 5.12612V28.8738V28.8739Z" fill="#563D7C"/>
<path d="M18.2698 15.1547V10.6231H22.2586C22.6386 10.6231 23.0049 10.6548 23.3576 10.7181C23.7104 10.7814 24.0225 10.8944 24.2939 11.0573C24.5651 11.2201 24.7823 11.4463 24.9452 11.7356C25.1079 12.0251 25.1894 12.396 25.1894 12.8481C25.1894 13.6623 24.9451 14.2503 24.4566 14.612C23.9683 14.9739 23.3441 15.1547 22.5843 15.1547H18.2698V15.1547ZM14.0094 7.3125V26.6875H23.3984C24.2668 26.6875 25.1125 26.579 25.9356 26.3619C26.7588 26.1448 27.4914 25.8101 28.1336 25.3579C28.7758 24.9056 29.2869 24.3221 29.6668 23.6076C30.0468 22.893 30.2367 22.0473 30.2367 21.0704C30.2367 19.8583 29.9426 18.8226 29.3548 17.9634C28.7668 17.104 27.8758 16.5025 26.6818 16.1587C27.5501 15.7427 28.206 15.209 28.6493 14.5577C29.0924 13.9065 29.314 13.0925 29.314 12.1155C29.314 11.211 29.1648 10.4513 28.8663 9.83613C28.5678 9.22113 28.1472 8.72813 27.6044 8.35725C27.0618 7.98638 26.4105 7.7195 25.6507 7.55675C24.8909 7.39387 24.0497 7.3125 23.127 7.3125H14.0094V7.3125ZM18.2698 23.3769V18.0583H22.9099C23.8325 18.0583 24.5743 18.2707 25.1351 18.696C25.6959 19.1211 25.9764 19.8311 25.9764 20.8261C25.9764 21.3327 25.8904 21.7488 25.7185 22.0744C25.5466 22.4 25.316 22.6579 25.0265 22.8477C24.7372 23.0377 24.4024 23.1734 24.0225 23.2549C23.6425 23.3361 23.2447 23.3769 22.8285 23.3769H18.2698V23.3769Z" fill="white"/>
</g>
<defs>
<filter id="filter0_d_16_922" x="0" y="0" width="42" height="42" filterUnits="userSpaceOnUse" color-interpolation-filters="sRGB">
<feFlood flood-opacity="0" result="BackgroundImageFix"/>
<feColorMatrix in="SourceAlpha" type="matrix" values="0 0 0 0 0 0 0 0 0 0 0 0 0 0 0 0 0 0 127 0" result="hardAlpha"/>
<feOffset dy="4"/>
<feGaussianBlur stdDeviation="2.5"/>
<feComposite in2="hardAlpha" operator="out"/>
<feColorMatrix type="matrix" values="0 0 0 0 0 0 0 0 0 0 0 0 0 0 0 0 0 0 0.25 0"/>
<feBlend mode="normal" in2="BackgroundImageFix" result="effect1_dropShadow_16_922"/>
<feBlend mode="normal" in="SourceGraphic" in2="effect1_dropShadow_16_922" result="shape"/>
</filter>
</defs>
</svg>
