<svg width="36" height="39" viewBox="0 0 36 39" fill="none" xmlns="http://www.w3.org/2000/svg">
<g filter="url(#filter0_d_16_929)">
<path d="M7.90201 27.201L5.65601 2H30.344L28.095 27.197L17.985 30L7.90201 27.201Z" fill="#1572B6"/>
<path d="M18 27.858L26.17 25.593L28.092 4.061H18V27.858Z" fill="#33A9DC"/>
<path d="M18 13.191H22.09L22.372 10.026H18V6.935H25.75L25.676 7.764L24.917 16.282H18V13.191V13.191Z" fill="white"/>
<path d="M18.019 21.218L18.005 21.222L14.563 20.292L14.343 17.827H11.24L11.673 22.68L18.004 24.438L18.019 24.434V21.218V21.218Z" fill="#EBEBEB"/>
<path d="M21.8271 16.151L21.4551 20.29L18.0081 21.22V24.436L24.3441 22.68L24.3911 22.158L24.9281 16.151H21.8271V16.151Z" fill="white"/>
<path d="M18.0109 6.935V10.026H10.5449L10.4829 9.331L10.3419 7.764L10.2679 6.935H18.0109V6.935Z" fill="#EBEBEB"/>
<path d="M18 13.191V16.282H14.601L14.539 15.587L14.399 14.02L14.325 13.191H18V13.191Z" fill="#EBEBEB"/>
</g>
<defs>
<filter id="filter0_d_16_929" x="-3" y="-1" width="42" height="42" filterUnits="userSpaceOnUse" color-interpolation-filters="sRGB">
<feFlood flood-opacity="0" result="BackgroundImageFix"/>
<feColorMatrix in="SourceAlpha" type="matrix" values="0 0 0 0 0 0 0 0 0 0 0 0 0 0 0 0 0 0 127 0" result="hardAlpha"/>
<feOffset dy="4"/>
<feGaussianBlur stdDeviation="2.5"/>
<feComposite in2="hardAlpha" operator="out"/>
<feColorMatrix type="matrix" values="0 0 0 0 0 0 0 0 0 0 0 0 0 0 0 0 0 0 0.25 0"/>
<feBlend mode="normal" in2="BackgroundImageFix" result="effect1_dropShadow_16_929"/>
<feBlend mode="normal" in="SourceGraphic" in2="effect1_dropShadow_16_929" result="shape"/>
</filter>
</defs>
</svg>
