<svg width="42" height="42" viewBox="0 0 42 42" fill="none" xmlns="http://www.w3.org/2000/svg">
<g filter="url(#filter0_d_16_925)">
<path d="M5 1H37V33H5V1Z" fill="#F7DF1E"/>
<path d="M13.4139 27.7415L15.8627 26.2595C16.3352 27.0971 16.7649 27.8059 17.7958 27.8059C18.7839 27.8059 19.4071 27.4194 19.4071 25.9159V15.6911H22.4142V25.9584C22.4142 29.073 20.5884 30.4908 17.9247 30.4908C15.5191 30.4908 14.1227 29.2449 13.4138 27.7413" fill="black"/>
<path d="M24.0476 27.4192L26.4961 26.0016C27.1407 27.0542 27.9785 27.8275 29.4605 27.8275C30.7066 27.8275 31.5011 27.2045 31.5011 26.3452C31.5011 25.3142 30.6849 24.949 29.3101 24.3477L28.5585 24.0252C26.3889 23.1019 24.9497 21.9419 24.9497 19.4931C24.9497 17.2376 26.6681 15.5191 29.3532 15.5191C31.265 15.5191 32.6397 16.1851 33.6277 17.925L31.2862 19.4287C30.7706 18.5051 30.2124 18.14 29.3531 18.14C28.4724 18.14 27.9139 18.6985 27.9139 19.4287C27.9139 20.3309 28.4724 20.6962 29.7611 21.2547L30.5129 21.5769C33.0691 22.6725 34.5082 23.7894 34.5082 26.3024C34.5082 29.0091 32.3817 30.4911 29.5249 30.4911C26.7325 30.4911 24.9281 29.1594 24.0475 27.4194" fill="black"/>
</g>
<defs>
<filter id="filter0_d_16_925" x="0" y="0" width="42" height="42" filterUnits="userSpaceOnUse" color-interpolation-filters="sRGB">
<feFlood flood-opacity="0" result="BackgroundImageFix"/>
<feColorMatrix in="SourceAlpha" type="matrix" values="0 0 0 0 0 0 0 0 0 0 0 0 0 0 0 0 0 0 127 0" result="hardAlpha"/>
<feOffset dy="4"/>
<feGaussianBlur stdDeviation="2.5"/>
<feComposite in2="hardAlpha" operator="out"/>
<feColorMatrix type="matrix" values="0 0 0 0 0 0 0 0 0 0 0 0 0 0 0 0 0 0 0.25 0"/>
<feBlend mode="normal" in2="BackgroundImageFix" result="effect1_dropShadow_16_925"/>
<feBlend mode="normal" in="SourceGraphic" in2="effect1_dropShadow_16_925" result="shape"/>
</filter>
</defs>
</svg>
