<svg width="32" height="32" viewBox="0 0 32 32" fill="none" xmlns="http://www.w3.org/2000/svg">
<g clip-path="url(#clip0_16_902)">
<path d="M31.0128 7.22657C31.0244 7.26912 31.0303 7.31299 31.0303 7.35712V14.2138C31.0303 14.393 30.9345 14.5584 30.779 14.6475L25.0242 17.9611V24.5284C25.0243 24.6163 25.0012 24.7026 24.9573 24.7787C24.9135 24.8549 24.8503 24.9181 24.7743 24.9622L12.7612 31.8777C12.7337 31.8932 12.7038 31.9032 12.6737 31.914C12.6624 31.9176 12.6519 31.9245 12.64 31.9277C12.556 31.9498 12.4677 31.9498 12.3838 31.9277C12.3699 31.924 12.3575 31.9164 12.3444 31.9114C12.3168 31.9013 12.2881 31.8926 12.2619 31.8777L0.251273 24.9621C0.174951 24.9183 0.111532 24.8551 0.0674158 24.779C0.0232994 24.7028 4.54985e-05 24.6164 0 24.5284L0 3.95821C0 3.91312 0.00630303 3.86936 0.0174545 3.82693C0.0212121 3.81251 0.0299394 3.79942 0.0350303 3.785C0.0443636 3.75881 0.0532121 3.7319 0.0669091 3.70754C0.0762424 3.6913 0.0899394 3.67821 0.101212 3.66318C0.115636 3.64318 0.128727 3.62257 0.145576 3.605C0.16 3.59069 0.178788 3.58003 0.19503 3.56754C0.213212 3.55251 0.229333 3.53627 0.249939 3.52439H0.250545L6.25612 0.0666935C6.33217 0.0229277 6.41838 -0.000106812 6.50612 -0.000106812C6.59387 -0.000106812 6.68007 0.0229277 6.75612 0.0666935L12.7617 3.52439H12.7629C12.7829 3.537 12.7999 3.55251 12.8179 3.56693C12.8342 3.57942 12.8524 3.59069 12.8667 3.60451C12.8842 3.62257 12.8967 3.6433 12.9116 3.66318C12.9223 3.67821 12.9367 3.6913 12.9455 3.70754C12.9598 3.73251 12.9679 3.75881 12.9779 3.78512C12.9829 3.79942 12.9916 3.81251 12.9954 3.82754C13.0069 3.87009 13.0128 3.91409 13.013 3.95821V16.806L18.0173 13.9244V7.35651C18.0173 7.31287 18.0236 7.26839 18.0349 7.22657C18.0393 7.21154 18.0474 7.19845 18.0524 7.18415C18.0624 7.15784 18.0712 7.13081 18.0848 7.10657C18.0942 7.09033 18.1079 7.07724 18.1187 7.06221C18.1336 7.04221 18.1461 7.0216 18.1635 7.00402C18.1781 6.98972 18.1961 6.97905 18.2124 6.96657C18.2312 6.95154 18.2474 6.9353 18.2674 6.92342H18.268L24.2742 3.46572C24.3502 3.4219 24.4364 3.39883 24.5242 3.39883C24.6119 3.39883 24.6982 3.4219 24.7742 3.46572L30.7798 6.92342C30.801 6.9359 30.8172 6.95154 30.836 6.96584C30.8515 6.97845 30.8697 6.98972 30.8841 7.00342C30.9016 7.0216 30.9141 7.04221 30.929 7.06221C30.9404 7.07724 30.9541 7.09033 30.9629 7.10657C30.9772 7.13081 30.9853 7.15784 30.9953 7.18415C31.001 7.19845 31.0091 7.21154 31.0128 7.22657V7.22657ZM30.0292 13.9245V8.22269L27.9275 9.43251L25.0241 11.1043V16.8061L30.0298 13.9245H30.0292V13.9245ZM24.0236 24.2391V18.5332L21.1676 20.1644L13.0124 24.8189V30.5782L24.0236 24.2388V24.2391ZM1.00109 4.82366V24.2391L12.0112 30.5777V24.8195L6.25939 21.5643L6.25758 21.563L6.25515 21.5618C6.23576 21.5506 6.21939 21.5343 6.20133 21.5206C6.18558 21.508 6.16752 21.4981 6.15382 21.4843L6.15261 21.4824C6.13636 21.4668 6.12509 21.4474 6.11139 21.43C6.09879 21.413 6.08388 21.3987 6.07382 21.3812L6.07321 21.3793C6.06194 21.3606 6.05503 21.3381 6.04691 21.3169C6.03879 21.2981 6.02824 21.2805 6.02315 21.2606V21.26C6.01697 21.2363 6.01576 21.2112 6.01321 21.1868C6.01079 21.1681 6.0057 21.1494 6.0057 21.1306V7.70536L3.10279 6.03287L1.00109 4.82439V4.82366ZM6.50679 1.07784L1.50291 3.95821L6.50558 6.83845L11.5087 3.95748L6.50558 1.07784H6.50679ZM9.10897 19.0534L12.0118 17.3823V4.82366L9.9103 6.0336L7.00667 7.70524V20.2638L9.10897 19.0534V19.0534ZM24.5241 4.47687L19.521 7.35712L24.5241 10.2375L29.5267 7.35651L24.5242 4.47687H24.5241ZM24.0235 11.1043L21.1201 9.43251L19.0185 8.22269V13.9245L21.9213 15.5957L24.0236 16.8061V11.1043H24.0235ZM12.5112 23.9535L19.8497 19.7639L23.5181 17.6703L18.5185 14.7919L12.7623 18.1058L7.516 21.1262L12.5112 23.9535Z" fill="#FF2D20"/>
</g>
<defs>
<clipPath id="clip0_16_902">
<rect width="31.0303" height="32" fill="white"/>
</clipPath>
</defs>
</svg>
