<svg width="16" height="32" viewBox="0 0 16 32" fill="none" xmlns="http://www.w3.org/2000/svg">
<g clip-path="url(#clip0_16_900)">
<path d="M0.939128 8.86946C1.0716 8.86946 1.20619 8.84131 1.33413 8.78185L15.3639 2.25838C15.8338 2.03985 16.0376 1.48181 15.8191 1.01194C15.6007 0.542066 15.0424 0.338261 14.5727 0.556731L0.543074 7.08019C0.0730777 7.29866 -0.130728 7.85671 0.0878039 8.32664C0.246748 8.66845 0.585513 8.86946 0.93919 8.86946H0.939128ZM14.5727 4.54461L0.543074 11.068C0.0730777 11.2864 -0.130728 11.8444 0.0878039 12.3143C0.246685 12.6562 0.585388 12.8572 0.93919 12.8572C1.07166 12.8572 1.20619 12.8291 1.33419 12.7695L15.3639 6.24621C15.8339 6.02767 16.0377 5.46963 15.8191 4.99976C15.6007 4.52989 15.0425 4.32608 14.5727 4.54455V4.54461ZM14.5727 8.56593L0.543074 15.0893C0.0730777 15.3077 -0.130728 15.8657 0.0878039 16.3356C0.246685 16.6775 0.585388 16.8785 0.93919 16.8785C1.07166 16.8785 1.20619 16.8504 1.33419 16.7908L15.3639 10.2675C15.8339 10.049 16.0377 9.49094 15.8191 9.02107C15.6007 8.5512 15.0425 8.34739 14.5727 8.56586V8.56593ZM0.939128 4.89289C1.07191 4.89289 1.20681 4.86455 1.33512 4.80478L7.80266 1.78889C8.27241 1.56992 8.47547 1.01163 8.2565 0.541942C8.03741 0.0722568 7.47918 -0.130741 7.0095 0.0881014L0.541955 3.10399C0.0723321 3.32302 -0.130852 3.88131 0.0881146 4.35094C0.247369 4.69237 0.585823 4.89289 0.939128 4.89289V4.89289ZM14.5691 12.5552L9.60957 14.8867C9.44839 14.9625 9.31211 15.0826 9.21665 15.2329C9.12119 15.3833 9.07049 15.5577 9.07048 15.7359V20.4193H6.90343V16.923C6.90343 16.4048 6.48339 15.9848 5.96518 15.9848C5.4469 15.9848 5.02686 16.4048 5.02686 16.923V20.4193H3.68212C3.28283 20.4193 2.98079 20.7805 3.05156 21.1736L3.36808 22.9304C3.3947 23.0783 3.47244 23.2121 3.5877 23.3084C3.70296 23.4048 3.84841 23.4576 3.99864 23.4575H7.29072L3.80366 24.0907C3.68124 24.1129 3.57266 24.1829 3.50182 24.2852C3.43097 24.3874 3.40365 24.5137 3.42587 24.6361C3.44552 24.7441 3.5024 24.8418 3.58663 24.9123C3.67087 24.9827 3.77712 25.0214 3.88692 25.0216C3.91482 25.0216 3.94303 25.0191 3.97136 25.0139L11.9692 23.5616C12.0887 23.5399 12.1951 23.4724 12.2657 23.3735C12.4314 23.2796 12.5528 23.1142 12.5835 22.9147L12.8549 21.1577C12.9148 20.7695 12.6144 20.4193 12.2216 20.4193H10.947V16.3316L15.3675 14.2535C15.8365 14.0331 16.0379 13.4742 15.8174 13.0052C15.5971 12.5365 15.0383 12.3348 14.5691 12.5552H14.5691ZM11.8015 25.029L3.80372 26.4811C3.6813 26.5033 3.57272 26.5733 3.50186 26.6755C3.431 26.7778 3.40367 26.904 3.42587 27.0264C3.44548 27.1345 3.50236 27.2322 3.5866 27.3027C3.67084 27.3731 3.77711 27.4118 3.88692 27.4119C3.91469 27.4119 3.94296 27.4094 3.97124 27.4042L11.9691 25.9521C12.0297 25.9411 12.0876 25.9183 12.1394 25.8849C12.1912 25.8516 12.2359 25.8084 12.271 25.7577C12.3061 25.7071 12.3308 25.65 12.3439 25.5898C12.3569 25.5296 12.3579 25.4674 12.3469 25.4068C12.3006 25.1519 12.0567 24.9819 11.8015 25.029V25.029ZM11.8015 27.5089L3.80372 28.9608C3.7431 28.9718 3.68524 28.9946 3.63344 29.028C3.58164 29.0613 3.53692 29.1046 3.50184 29.1552C3.46675 29.2059 3.44198 29.2629 3.42895 29.3231C3.41591 29.3834 3.41487 29.4455 3.42587 29.5062C3.44548 29.6142 3.50236 29.7119 3.5866 29.7824C3.67084 29.8528 3.77711 29.8915 3.88692 29.8917C3.91469 29.8917 3.94296 29.8892 3.97124 29.884L11.9691 28.4318C12.0297 28.4208 12.0876 28.398 12.1394 28.3647C12.1912 28.3313 12.2359 28.2881 12.271 28.2374C12.3061 28.1868 12.3308 28.1298 12.3439 28.0695C12.3569 28.0093 12.3579 27.9471 12.3469 27.8865C12.3006 27.6316 12.0567 27.4616 11.8015 27.5087V27.5089ZM10.845 30.0101L4.88016 31.0378C4.75865 31.0601 4.65083 31.1294 4.58011 31.2307C4.5094 31.332 4.4815 31.4571 4.50247 31.5789C4.52344 31.7006 4.59159 31.8092 4.69212 31.881C4.79265 31.9528 4.91745 31.9821 5.03941 31.9624L11.0043 30.9348C11.127 30.9137 11.2362 30.8447 11.308 30.743C11.3798 30.6414 11.4082 30.5154 11.3871 30.3927C11.3431 30.1376 11.1009 29.967 10.845 30.0101V30.0101Z" fill="#E54537"/>
</g>
<defs>
<clipPath id="clip0_16_900">
<rect width="15.9068" height="32" fill="white"/>
</clipPath>
</defs>
</svg>
