<svg width="47" height="32" viewBox="0 0 47 32" fill="none" xmlns="http://www.w3.org/2000/svg">
<g clip-path="url(#clip0_16_896)">
<path d="M13.9654 21.1161L15.3921 25.7452C15.7126 26.7963 15.8463 27.53 15.7928 27.9482C16.5731 25.8584 17.1183 23.581 17.4284 21.1161H19.144C18.4063 25.129 17.4334 28.0451 16.2257 29.8643C15.2848 31.2661 14.254 31.967 13.1316 31.967C12.8323 31.967 12.4633 31.8766 12.0255 31.6971V30.7297C12.2394 30.7611 12.4904 30.7779 12.779 30.7779C13.3026 30.7779 13.7247 30.6327 14.0458 30.3431C14.4303 29.9901 14.6227 29.5935 14.6227 29.1538C14.6227 28.8536 14.4726 28.2376 14.1738 27.3056L12.1859 21.1161H13.9653H13.9654ZM3.04624 18.2708L5.65942 26.2439H5.67555L8.30478 18.2708H10.4529C10.9233 22.2249 11.2011 25.8427 11.2864 29.122H9.4753C9.41158 26.0565 9.23507 23.174 8.94643 20.4738H8.93066L6.17279 29.122H4.79358L2.0524 20.4738H2.03626C1.83289 23.067 1.70489 25.9495 1.65153 29.122H0C0.106728 25.2637 0.373822 21.647 0.801284 18.2708H3.04633H3.04624Z" fill="#00758F"/>
<path d="M32.3207 18.1098C35.1317 18.1098 36.5372 19.9056 36.5372 23.4956C36.5372 25.4464 36.1145 26.92 35.2699 27.9155C35.1177 28.0974 34.9495 28.2545 34.7723 28.4001L36.7616 29.3837L36.7596 29.3836L36.0533 30.6033L33.4628 29.0918C33.0334 29.2189 32.5609 29.2825 32.0461 29.2825C30.6659 29.2825 29.6349 28.8802 28.9533 28.0767C28.2051 27.1879 27.8312 25.7886 27.8312 23.8813C27.8312 21.9414 28.2531 20.4735 29.098 19.4767C29.8674 18.5649 30.9419 18.1097 32.3207 18.1097V18.1098ZM23.7128 18.1256C24.7175 18.1256 25.631 18.3944 26.4538 18.9301L26.0359 19.8614C25.3318 19.5622 24.6376 19.4119 23.953 19.4119C23.3976 19.4119 22.9696 19.5456 22.6712 19.8146C22.3712 20.0812 22.1856 20.4243 22.1856 20.8426C22.1856 21.4854 22.6435 22.0428 23.489 22.5137C23.766 22.6651 24.042 22.8183 24.317 22.9731L24.3801 23.0086L24.4118 23.0264L24.4749 23.0619L24.5065 23.0797L24.5696 23.1153C25.2096 23.4761 25.8118 23.8205 25.8118 23.8205C26.6572 24.4206 27.0786 25.0604 27.0786 26.1142C27.0786 27.0345 26.7413 27.7899 26.0691 28.3811C25.3963 28.9695 24.4925 29.2646 23.3607 29.2646C22.3021 29.2646 21.2762 28.925 20.2825 28.2514L20.7473 27.3193C21.6025 27.7479 22.3764 27.962 23.0713 27.962C23.7231 27.962 24.2332 27.8165 24.6023 27.5292C24.9706 27.2397 25.1913 26.836 25.1913 26.3241C25.1913 25.6798 24.7431 25.129 23.9209 24.667C23.6636 24.5248 23.407 24.3812 23.1512 24.2363L23.0882 24.2006C22.9725 24.1352 22.8559 24.069 22.7418 24.0042L22.6799 23.969C22.1247 23.6532 21.6447 23.3773 21.6447 23.3773C20.8228 22.7761 20.4107 22.1311 20.4107 21.0682C20.4107 20.1891 20.718 19.4786 21.3318 18.9381C21.947 18.3964 22.7408 18.1256 23.7128 18.1256V18.1256ZM39.8407 18.2708V27.7872H43.2551V29.122H38.109V18.2708H39.8407ZM45.1523 27.7913V28.0169H44.777V29.1208H44.49V28.0169H44.1V27.7913H45.1524H45.1523ZM45.8455 27.7913L46.206 28.6976L46.5371 27.7913H46.9439V29.1208H46.6734V28.109L46.2965 29.1208H46.1015L45.724 28.109H45.7095V29.1208H45.4536V27.7913H45.8456H45.8455ZM32.1439 19.4443C30.4874 19.4443 29.6587 20.8114 29.6587 23.5437C29.6587 25.1089 29.8783 26.2438 30.3167 26.9512C30.7227 27.6059 31.3586 27.9326 32.2244 27.9326C33.8809 27.9326 34.7095 26.5549 34.7095 23.8007C34.7095 22.2574 34.4899 21.1322 34.0521 20.4244C33.6456 19.7712 33.01 19.4443 32.144 19.4443H32.1439Z" fill="#F29111"/>
<path d="M27.8023 0.672373C28.3518 -0.677862 30.2731 0.344671 31.0188 0.816327C31.2015 0.934333 31.4111 1.18364 31.6206 1.27579C31.9475 1.28862 32.2741 1.31421 32.6015 1.32787C33.2157 1.47219 33.7909 1.5901 34.2749 1.86572C36.5239 3.19019 37.9879 4.53988 39.3353 6.76924C39.6232 7.24145 39.7671 7.75244 40.0022 8.26343C40.3287 9.0251 40.6954 9.82464 41.0743 10.5449C41.2439 10.8863 41.3751 11.266 41.6107 11.5544C41.7027 11.6862 41.9639 11.7251 42.12 11.8039C42.5517 12.0273 43.0747 12.197 43.4807 12.4592C44.2389 12.9319 44.972 13.4953 45.6384 14.072C45.8868 14.2946 46.056 14.6098 46.2927 14.8453V14.9641C46.0826 15.0285 45.8733 15.0946 45.6638 15.1475C45.2062 15.265 44.8008 15.2384 44.3568 15.3561C44.0825 15.4356 43.7419 15.5406 43.4541 15.5673L43.4807 15.5941C43.65 16.0778 44.5658 16.4711 44.9846 16.7604C45.4933 17.1275 45.9647 17.5728 46.3441 18.0841C46.4751 18.2146 46.6062 18.3333 46.7366 18.4635C46.8277 18.5953 46.8534 18.7658 46.9456 18.8834V18.9232C46.8435 18.8872 46.77 18.8184 46.7004 18.7465L46.6589 18.7031C46.6174 18.66 46.5755 18.6177 46.5277 18.5827C46.239 18.3856 45.9524 18.1498 45.6638 17.9665C45.1675 17.6516 44.592 17.4689 44.0825 17.1528C43.7944 16.9694 43.5198 16.7604 43.2452 16.5504C42.9962 16.3664 42.7221 16.013 42.5656 15.7508C42.4735 15.6059 42.4608 15.4356 42.3556 15.3308C42.3744 15.1558 42.5347 15.1038 42.6966 15.0611L42.7338 15.0513C42.7896 15.0368 42.8443 15.0223 42.892 15.0031C43.5718 14.7145 44.3822 14.6098 45.4288 14.636C45.3893 14.3732 44.7354 14.0458 44.5266 13.8885C44.1076 13.5864 43.6639 13.2713 43.2194 12.9964C42.9838 12.8524 42.5779 12.7474 42.317 12.6297C41.9639 12.4854 41.1791 12.3412 40.9834 12.0663C40.6511 11.633 40.4123 11.1161 40.1805 10.594L40.1174 10.4515C40.0964 10.404 40.0753 10.3566 40.0541 10.3091C39.7802 9.68042 39.4398 9.02492 39.1652 8.38116C39.0216 8.06712 38.9557 7.7915 38.7984 7.4903C37.8442 5.642 36.4319 4.09454 34.7196 3.00626C34.1569 2.65215 33.5294 2.32445 32.8368 2.10174C32.4443 1.98318 31.9732 2.04874 31.555 1.95778H31.2797C31.0448 1.89158 30.8487 1.64255 30.6654 1.51125C30.2606 1.23636 29.8551 1.05179 29.371 0.855662C29.2014 0.776992 28.717 0.593794 28.5479 0.738023C28.4432 0.764338 28.3901 0.803857 28.3643 0.908934C28.2602 1.06573 28.3518 1.30192 28.4166 1.44652C28.613 1.86554 28.8873 2.11457 29.1364 2.46868C29.3579 2.78272 29.6331 3.13683 29.7901 3.47829C30.129 4.21227 30.2868 5.02547 30.6008 5.75936C30.7173 6.03535 30.9015 6.34939 31.071 6.59833C31.2147 6.79592 31.4759 6.93878 31.555 7.18891C31.7125 7.45114 31.3191 8.31643 31.2281 8.59122C30.8875 9.66648 30.9535 11.1611 31.3457 12.0932L31.3666 12.1423L31.3876 12.1921C31.5308 12.5335 31.6841 12.901 32.0649 12.9965C32.0911 12.9705 32.0649 12.9841 32.1169 12.9705C32.209 12.249 32.235 11.5543 32.4836 10.9898C32.6273 10.6369 32.9142 10.3874 33.1109 10.0993C33.242 10.1778 33.242 10.4145 33.3201 10.5711C33.4903 10.9773 33.673 11.4226 33.8828 11.83C34.3134 12.669 34.7979 13.4824 35.3468 14.2163C35.5307 14.4784 35.7915 14.7669 36.0268 15.0031C36.1316 15.0945 36.249 15.1473 36.3277 15.2649H36.3534V15.3045C35.9612 15.1599 35.7125 14.7541 35.3997 14.5172C34.8106 14.0718 34.1053 13.4031 33.6993 12.7613C33.5294 12.3929 33.3459 12.0398 33.1629 11.6732V11.6467C33.0847 11.7514 33.1109 11.8554 33.0717 12.0138C32.9019 12.669 33.0327 13.4163 32.4443 13.652C31.7773 13.928 31.2798 13.2067 31.071 12.8789C30.4039 11.7909 30.2212 9.9554 30.6916 8.47377C30.7961 8.14579 30.8104 7.75244 30.9928 7.49057C30.9534 7.25383 30.7709 7.18909 30.6654 7.04404C30.4824 6.79611 30.3257 6.50728 30.1824 6.23194C29.9071 5.69408 29.7113 5.05142 29.5023 4.47459C29.4104 4.23904 29.3841 4.00257 29.2925 3.77958C29.1363 3.43923 28.8483 3.09777 28.6261 2.79666C28.3253 2.36388 27.4491 1.52509 27.8023 0.672373V0.672373ZM32.0908 3.24108C32.1258 3.27611 32.1679 3.30673 32.2116 3.3369L32.2642 3.37302C32.3343 3.42162 32.4023 3.47278 32.4439 3.54247C32.5099 3.63471 32.5222 3.72576 32.6013 3.81818C32.6013 4.13332 32.5099 4.34284 32.3255 4.4734C32.3255 4.4734 32.313 4.48716 32.3001 4.49999C32.1955 4.28993 32.1039 4.08097 31.9987 3.87109C31.869 3.68789 31.6857 3.54256 31.5801 3.33323H31.5547V3.30692C31.7125 3.26795 31.869 3.24108 32.0908 3.24108Z" fill="#00758F"/>
</g>
<defs>
<clipPath id="clip0_16_896">
<rect width="46.9456" height="32" fill="white"/>
</clipPath>
</defs>
</svg>
