<svg width="61" height="32" viewBox="0 0 61 32" fill="none" xmlns="http://www.w3.org/2000/svg">
<g clip-path="url(#clip0_16_904)">
<path d="M30.3407 31.9052C47.0975 31.9052 60.6815 24.763 60.6815 15.9526C60.6815 7.14222 47.0975 0 30.3407 0C13.584 0 0 7.14222 0 15.9526C0 24.763 13.584 31.9052 30.3407 31.9052Z" fill="url(#paint0_radial_16_904)"/>
<path d="M30.3407 30.72C46.4429 30.72 59.4963 24.1084 59.4963 15.9526C59.4963 7.79677 46.4429 1.18518 30.3407 1.18518C14.2386 1.18518 1.18518 7.79677 1.18518 15.9526C1.18518 24.1084 14.2386 30.72 30.3407 30.72Z" fill="#6181B6"/>
<path d="M36.243 20.7407L37.6889 13.2978C38.0208 11.6148 37.7363 10.3585 36.883 9.5763C36.0533 8.81778 34.6311 8.43852 32.5452 8.43852H30.0326L30.7437 4.74074C30.7674 4.59852 30.7437 4.4563 30.6489 4.33778C30.5541 4.21926 30.4356 4.17185 30.2933 4.17185H26.8326C26.5956 4.17185 26.4059 4.33778 26.3585 4.55111L24.8178 12.4444C24.6756 11.5437 24.3437 10.7852 23.7748 10.1689C22.7556 9.00741 21.1674 8.41481 19.0104 8.41481H12.3496C12.1126 8.41481 11.923 8.58074 11.8756 8.79407L8.77039 24.8178C8.74669 24.96 8.77039 25.1022 8.86521 25.2207C8.96002 25.3393 9.07854 25.3867 9.22076 25.3867H12.7052C12.9422 25.3867 13.1319 25.2207 13.1793 25.0074L13.9378 21.1437H16.5215C17.8726 21.1437 19.0341 21.0015 19.9111 20.717C20.8356 20.4089 21.6652 19.9111 22.4 19.2237C22.9926 18.6785 23.4904 18.0622 23.8696 17.3985L23.2534 20.5985C23.2296 20.7407 23.2534 20.883 23.3482 21.0015C23.443 21.12 23.5615 21.1674 23.7037 21.1674H27.1645C27.4015 21.1674 27.5911 21.0015 27.6385 20.7881L29.3452 12.0178H31.7156C32.7348 12.0178 33.0193 12.2074 33.1141 12.3022C33.1852 12.3733 33.3274 12.6578 33.1615 13.5348L31.7867 20.6222C31.763 20.7644 31.7867 20.9067 31.8815 21.0252C31.9763 21.1437 32.0948 21.1911 32.2371 21.1911H35.7926C36.0059 21.12 36.1956 20.9541 36.243 20.7407ZM20.2193 14.5778C20.0059 15.6918 19.603 16.4978 19.0104 16.9481C18.4178 17.3985 17.4459 17.6356 16.1659 17.6356H14.6252L15.7393 11.8993H17.7304C19.2 11.8993 19.7926 12.2074 20.0296 12.4681C20.3378 12.8474 20.4089 13.5822 20.2193 14.5778V14.5778Z" fill="white"/>
<path d="M51.034 10.1689C50.0148 9.00741 48.4266 8.41482 46.2696 8.41482H39.5614C39.3244 8.41482 39.1348 8.58074 39.0874 8.79408L35.9822 24.7941C35.9585 24.9363 35.9822 25.0785 36.077 25.197C36.1718 25.3156 36.2903 25.363 36.4326 25.363H39.917C40.154 25.363 40.3437 25.197 40.3911 24.9837L41.1496 21.12H43.7333C45.0844 21.12 46.2459 20.9778 47.1229 20.6933C48.0474 20.3852 48.877 19.8874 49.6118 19.2C50.2281 18.6311 50.7496 17.9911 51.1288 17.3037C51.5081 16.6163 51.7925 15.8578 51.9585 15.0282C52.3614 12.9659 52.0533 11.3541 51.034 10.1689V10.1689ZM47.4074 14.5778C47.194 15.6919 46.7911 16.4978 46.1985 16.9482C45.6059 17.3985 44.634 17.6356 43.354 17.6356H41.8133L42.9274 11.8993H44.9185C46.3881 11.8993 46.9807 12.2074 47.2177 12.4682C47.5496 12.8474 47.6207 13.5822 47.4074 14.5778Z" fill="white"/>
<path d="M17.7303 11.4252C19.0577 11.4252 19.9348 11.6622 20.3851 12.16C20.8355 12.6578 20.9303 13.4874 20.6933 14.6726C20.4562 15.9052 19.9822 16.8059 19.2948 17.3274C18.6073 17.8489 17.5644 18.1096 16.1659 18.1096H14.0562L15.3599 11.4252H17.7303V11.4252ZM9.24438 24.8889H12.7288L13.5585 20.6459H16.5451C17.8725 20.6459 18.9392 20.5037 19.7925 20.2193C20.6459 19.9348 21.4044 19.4844 22.1155 18.8207C22.7081 18.2756 23.1822 17.683 23.5377 17.043C23.8933 16.403 24.154 15.6919 24.2962 14.9096C24.6755 13.0133 24.3911 11.5437 23.4666 10.477C22.5422 9.41037 21.0725 8.88889 19.0577 8.88889H12.3496L9.24438 24.8889Z" fill="#000004"/>
<path d="M26.8563 4.64593H30.317L29.4874 8.88889H32.5689C34.5126 8.88889 35.84 9.22074 36.5748 9.90815C37.3096 10.5956 37.523 11.6859 37.2385 13.203L35.7926 20.6459H32.2844L33.6592 13.5585C33.8252 12.7526 33.7541 12.2074 33.4933 11.923C33.2326 11.6385 32.64 11.4726 31.763 11.4726H28.9896L27.2118 20.6459H23.7511L26.8563 4.64593V4.64593Z" fill="#000004"/>
<path d="M44.9184 11.4252C46.2458 11.4252 47.1229 11.6622 47.5732 12.16C48.0236 12.6578 48.1184 13.4874 47.8814 14.6726C47.6443 15.9052 47.1703 16.8059 46.4829 17.3274C45.7955 17.8489 44.7525 18.1096 43.354 18.1096H41.2443L42.5481 11.4252H44.9184ZM36.4325 24.8889H39.9169L40.7466 20.6459H43.7332C45.0606 20.6459 46.1273 20.5037 46.9806 20.2193C47.834 19.9348 48.5925 19.4844 49.3036 18.8207C49.8962 18.2756 50.3703 17.683 50.7258 17.043C51.0814 16.403 51.3421 15.6919 51.4843 14.9096C51.8636 13.0133 51.5792 11.5437 50.6547 10.477C49.7303 9.41037 48.2606 8.88889 46.2458 8.88889H39.5377L36.4325 24.8889Z" fill="#000004"/>
</g>
<defs>
<radialGradient id="paint0_radial_16_904" cx="0" cy="0" r="1" gradientUnits="userSpaceOnUse" gradientTransform="translate(18.2167 5.61008) scale(39.8448)">
<stop stop-color="white"/>
<stop offset="0.5" stop-color="#4C6B97"/>
<stop offset="1" stop-color="#231F20"/>
</radialGradient>
<clipPath id="clip0_16_904">
<rect width="60.6815" height="32" fill="white"/>
</clipPath>
</defs>
</svg>
