<svg width="64" height="64" viewBox="0 0 64 64" fill="none" xmlns="http://www.w3.org/2000/svg">
<path d="M26 17.76V21.14H63.965C63.912 20.05 63.798 18.672 63.39 17.76" fill="#EC1C24"/>
<path d="M61.6 14.38H26V17.76H63.39C62.984 16.499 62.38 15.349 61.6 14.38" fill="#E6E7E8"/>
<path d="M54 11H26V14.38H61.6C59.931 12.29 57.184 11 54 11Z" fill="#EC1C24"/>
<path d="M63.965 21.14H26V24.52H64V22.267C64 22.066 63.987 21.87 63.981 21.673C63.977 21.619 63.971 21.48 63.965 21.14" fill="#E6E7E8"/>
<path d="M26 27.9H64V24.52H26V27.9Z" fill="#EC1C24"/>
<path d="M26 31.28H64V27.9H26V31.28" fill="#E6E7E8"/>
<path d="M26 31.28H64V34.66H26V31.28Z" fill="#EC1C24"/>
<path d="M0 34.66V38.04H64V34.66H26H0Z" fill="#E6E7E8"/>
<path d="M0 38.04H64V41.42H0V38.04Z" fill="#EC1C24"/>
<path d="M0.005 43.499C0.005 43.499 -0.004 44.318 0.02 44.8H63.98C64.008 44.306 63.995 43.499 63.995 43.499L64 41.42H0L0.005 43.499Z" fill="#E6E7E8"/>
<path d="M10 55H54C57.193 55 59.847 53.84 61.66 51.56H2.33002C4.20202 53.89 6.90602 55 9.99502 55" fill="#EC1C24"/>
<path d="M2.33498 51.56H61.665C62.4559 50.5551 63.0466 49.4076 63.405 48.18H0.60498C0.970077 49.404 1.55829 50.5499 2.33998 51.56" fill="#E6E7E8"/>
<path d="M0.60002 48.18H63.4C63.7275 47.0805 63.9222 45.9458 63.98 44.8H0.0200195C0.11902 45.956 0.21102 46.829 0.60002 48.18Z" fill="#EC1C24"/>
<path d="M26 11H10C3.373 11 0 15.925 0 22V34.66H26V11Z" fill="#176496"/>
<path d="M2.79798 16.976L3.34198 16.558L3.88498 16.976L3.67398 16.304L4.21498 15.893H3.54698L3.33998 15.218L3.13398 15.893H2.46698L3.00998 16.304L2.79798 16.976Z" fill="white"/>
<path d="M6.392 16.976L6.936 16.558L7.479 16.976L7.269 16.304L7.809 15.893H7.142L6.935 15.218L6.729 15.893H6.06L6.603 16.304L6.392 16.976Z" fill="white"/>
<path d="M10.357 16.976L10.9 16.558L11.444 16.976L11.233 16.304L11.773 15.893H11.11L10.9 15.218L10.693 15.893H10.03L10.567 16.304L10.357 16.976Z" fill="white"/>
<path d="M14.293 16.976L14.836 16.558L15.38 16.976L15.17 16.304L15.71 15.893H15.04L14.836 15.218L14.63 15.893H13.962L14.504 16.304L14.293 16.976Z" fill="white"/>
<path d="M18.243 16.976L18.787 16.558L19.33 16.976L19.12 16.304L19.661 15.893H18.992L18.786 15.218L18.58 15.893H17.913L18.453 16.304L18.243 16.976Z" fill="white"/>
<path d="M4.711 18.731L5.254 18.314L5.797 18.731L5.588 18.06L6.128 17.649H5.46L5.253 16.975L5.05 17.649H4.38L4.921 18.06L4.711 18.731Z" fill="white"/>
<path d="M8.30598 18.731L8.84898 18.314L9.39198 18.731L9.18198 18.06L9.72198 17.649H9.04998L8.84898 16.975L8.64198 17.649H7.97498L8.51598 18.06L8.30598 18.731Z" fill="white"/>
<path d="M12.271 18.731L12.813 18.314L13.356 18.731L13.146 18.06L13.687 17.649H13.02L12.813 16.975L12.606 17.649H11.938L12.479 18.06L12.271 18.731Z" fill="white"/>
<path d="M16.205 18.731L16.749 18.314L17.293 18.731L17.08 18.06L17.622 17.649H16.955L16.748 16.975L16.543 17.649H15.875L16.416 18.06L16.205 18.731Z" fill="white"/>
<path d="M20.16 18.731L20.699 18.314L21.242 18.731L21.03 18.06L21.572 17.649H20.906L20.698 16.975L20.493 17.649H19.825L20.366 18.06L20.16 18.731Z" fill="white"/>
<path d="M22.387 16.976L22.93 16.558L23.474 16.976L23.263 16.304L23.803 15.893H23.14L22.929 15.218L22.723 15.893H22.05L22.597 16.304L22.387 16.976Z" fill="white"/>
<path d="M2.745 31.02L3.289 30.607L3.832 31.02L3.622 30.354L4.162 29.942L3.495 29.944L3.287 29.27L3.083 29.944L2.414 29.942L2.955 30.354L2.745 31.02Z" fill="white"/>
<path d="M6.34001 31.02L6.88301 30.607L7.42701 31.02L7.21601 30.354L7.75601 29.942L7.09001 29.944L6.88201 29.27L6.67701 29.944L6.01001 29.942L6.55001 30.354L6.34001 31.02Z" fill="white"/>
<path d="M10.305 31.02L10.848 30.607L11.392 31.02L11.181 30.354L11.721 29.942L11.05 29.944L10.847 29.27L10.641 29.944L9.974 29.942L10.515 30.354L10.305 31.02Z" fill="white"/>
<path d="M14.241 31.02L14.784 30.607L15.327 31.02L15.12 30.354L15.657 29.942L14.989 29.944L14.783 29.27L14.577 29.944L13.91 29.942L14.45 30.354L14.241 31.02Z" fill="white"/>
<path d="M18.19 31.02L18.734 30.607L19.278 31.02L19.07 30.354L19.607 29.942L18.94 29.944L18.733 29.27L18.528 29.944L17.86 29.942L18.4 30.354L18.19 31.02Z" fill="white"/>
<path d="M22.334 31.02L22.877 30.607L23.421 31.02L23.21 30.354L23.751 29.942L23.08 29.944L22.876 29.27L22.67 29.944L22 29.942L22.544 30.354L22.334 31.02Z" fill="white"/>
<path d="M2.79798 20.488L3.34198 20.07L3.88498 20.488L3.67398 19.816L4.21498 19.405L3.54698 19.407L3.33998 18.731L3.13398 19.407L2.46698 19.405L3.00998 19.816L2.79798 20.488Z" fill="white"/>
<path d="M6.392 20.488L6.936 20.07L7.479 20.488L7.269 19.816L7.809 19.405L7.142 19.407L6.935 18.731L6.729 19.407L6.06 19.405L6.603 19.816L6.392 20.488Z" fill="white"/>
<path d="M10.357 20.488L10.9 20.07L11.444 20.488L11.233 19.816L11.773 19.405L11.11 19.407L10.9 18.731L10.693 19.407L10.03 19.405L10.567 19.816L10.357 20.488Z" fill="white"/>
<path d="M14.293 20.488L14.836 20.07L15.38 20.488L15.17 19.816L15.71 19.405L15.04 19.407L14.836 18.731L14.63 19.407L13.962 19.405L14.504 19.816L14.293 20.488Z" fill="white"/>
<path d="M18.243 20.488L18.787 20.07L19.33 20.488L19.12 19.816L19.661 19.405L18.992 19.407L18.786 18.731L18.58 19.407L17.913 19.405L18.453 19.816L18.243 20.488Z" fill="white"/>
<path d="M4.711 22.244L5.254 21.827L5.797 22.244L5.588 21.573L6.128 21.16H5.46L5.253 20.488L5.05 21.16H4.38L4.921 21.573L4.711 22.244Z" fill="white"/>
<path d="M8.30598 22.244L8.84898 21.827L9.39198 22.244L9.18198 21.573L9.72198 21.16H9.04998L8.84898 20.488L8.64198 21.16H7.97498L8.51598 21.573L8.30598 22.244Z" fill="white"/>
<path d="M12.271 22.244L12.813 21.827L13.356 22.244L13.146 21.573L13.687 21.16H13.02L12.813 20.488L12.606 21.16H11.938L12.479 21.573L12.271 22.244Z" fill="white"/>
<path d="M16.205 22.244L16.749 21.827L17.293 22.244L17.08 21.573L17.622 21.16H16.955L16.748 20.488L16.543 21.16H15.875L16.416 21.573L16.205 22.244Z" fill="white"/>
<path d="M20.16 22.244L20.699 21.827L21.242 22.244L21.03 21.573L21.572 21.16H20.906L20.698 20.488L20.493 21.16H19.825L20.366 21.573L20.16 22.244Z" fill="white"/>
<path d="M22.387 20.488L22.93 20.07L23.474 20.488L23.263 19.816L23.803 19.405L23.14 19.407L22.929 18.731L22.723 19.407L22.05 19.405L22.597 19.816L22.387 20.488Z" fill="white"/>
<path d="M2.745 24L3.289 23.583L3.832 24L3.621 23.33L4.162 22.918L3.494 22.92L3.287 22.244L3.083 22.92L2.414 22.918L2.955 23.33L2.745 24Z" fill="white"/>
<path d="M6.34001 24L6.88301 23.583L7.42701 24L7.21601 23.33L7.75601 22.918L7.09001 22.92L6.88201 22.244L6.67701 22.92L6.01001 22.918L6.54901 23.33L6.34001 24Z" fill="white"/>
<path d="M10.305 24L10.848 23.583L11.391 24L11.181 23.33L11.721 22.918L11.05 22.92L10.847 22.244L10.641 22.92L9.974 22.918L10.515 23.33L10.305 24Z" fill="white"/>
<path d="M14.241 24L14.783 23.583L15.327 24L15.12 23.33L15.657 22.918L14.989 22.92L14.783 22.244L14.577 22.92L13.91 22.918L14.45 23.33L14.241 24Z" fill="white"/>
<path d="M18.19 24L18.734 23.583L19.277 24L19.07 23.33L19.607 22.918L18.939 22.92L18.733 22.244L18.528 22.92L17.86 22.918L18.4 23.33L18.19 24Z" fill="white"/>
<path d="M4.65803 25.756L5.20103 25.34L5.74403 25.756L5.53503 25.09L6.07403 24.676H5.40603L5.20003 24L4.99503 24.676H4.32703L4.86803 25.09L4.65803 25.756Z" fill="white"/>
<path d="M8.25302 25.756L8.79602 25.34L9.33902 25.756L9.12902 25.09L9.66902 24.676H9.00002L8.79502 24L8.58902 24.676H7.92102L8.46302 25.09L8.25302 25.756Z" fill="white"/>
<path d="M12.219 25.756L12.76 25.34L13.304 25.756L13.09 25.09L13.634 24.676H12.967L12.76 24L12.554 24.676H11.886L12.427 25.09L12.219 25.756Z" fill="white"/>
<path d="M16.15 25.756L16.696 25.34L17.24 25.756L17.03 25.09L17.569 24.676H16.902L16.695 24L16.49 24.676H15.822L16.363 25.09L16.15 25.756Z" fill="white"/>
<path d="M20.1 25.756L20.646 25.34L21.19 25.756L20.979 25.09L21.521 24.676H20.854L20.646 24L20.44 24.676H19.772L20.313 25.09L20.1 25.756Z" fill="white"/>
<path d="M22.334 24L22.877 23.583L23.42 24L23.21 23.33L23.751 22.918L23.08 22.92L22.876 22.244L22.67 22.92L22 22.918L22.544 23.33L22.334 24Z" fill="white"/>
<path d="M2.745 27.513L3.289 27.1L3.832 27.513L3.621 26.842L4.162 26.43L3.494 26.432L3.287 25.756L3.083 26.432L2.414 26.43L2.955 26.842L2.745 27.513Z" fill="white"/>
<path d="M6.34001 27.513L6.88301 27.1L7.42701 27.513L7.21601 26.842L7.75601 26.43L7.09001 26.432L6.88201 25.756L6.67701 26.432L6.01001 26.43L6.54901 26.842L6.34001 27.513Z" fill="white"/>
<path d="M10.305 27.513L10.848 27.1L11.391 27.513L11.181 26.842L11.721 26.43L11.05 26.432L10.847 25.756L10.641 26.432L9.974 26.43L10.515 26.842L10.305 27.513Z" fill="white"/>
<path d="M14.241 27.513L14.783 27.1L15.327 27.513L15.12 26.842L15.657 26.43L14.989 26.432L14.783 25.756L14.577 26.432L13.91 26.43L14.45 26.842L14.241 27.513Z" fill="white"/>
<path d="M18.19 27.513L18.734 27.1L19.277 27.513L19.07 26.842L19.607 26.43L18.939 26.432L18.733 25.756L18.528 26.432L17.86 26.43L18.4 26.842L18.19 27.513Z" fill="white"/>
<path d="M4.65803 29.27L5.20103 28.852L5.74403 29.27L5.53503 28.598L6.07403 28.19H5.40603L5.20003 27.513L4.99503 28.19H4.32703L4.86803 28.598L4.65803 29.27Z" fill="white"/>
<path d="M8.25302 29.27L8.79602 28.852L9.33902 29.27L9.12902 28.598L9.66902 28.19H9.00002L8.79502 27.513L8.58902 28.19H7.92102L8.46302 28.598L8.25302 29.27Z" fill="white"/>
<path d="M12.219 29.27L12.76 28.852L13.304 29.27L13.09 28.598L13.634 28.19H12.967L12.76 27.513L12.554 28.19H11.886L12.427 28.598L12.219 29.27Z" fill="white"/>
<path d="M16.15 29.27L16.696 28.852L17.24 29.27L17.03 28.598L17.569 28.19H16.902L16.695 27.513L16.49 28.19H15.822L16.363 28.598L16.15 29.27Z" fill="white"/>
<path d="M20.1 29.27L20.646 28.852L21.19 29.27L20.979 28.598L21.521 28.19H20.854L20.646 27.513L20.44 28.19H19.772L20.313 28.598L20.1 29.27Z" fill="white"/>
<path d="M22.334 27.513L22.877 27.1L23.42 27.513L23.21 26.842L23.751 26.43L23.08 26.432L22.876 25.756L22.67 26.432L22 26.43L22.544 26.842L22.334 27.513Z" fill="white"/>
</svg>
