<svg width="32" height="32" viewBox="0 0 32 32" fill="none" xmlns="http://www.w3.org/2000/svg">
<path d="M16.0004 8.99999C14.6159 8.99999 13.2625 9.41053 12.1114 10.1797C10.9602 10.9489 10.063 12.0421 9.53323 13.3212C9.00342 14.6003 8.86479 16.0078 9.13489 17.3656C9.40499 18.7235 10.0717 19.9708 11.0506 20.9497C12.0296 21.9287 13.2769 22.5954 14.6348 22.8655C15.9926 23.1356 17.4001 22.997 18.6792 22.4671C19.9583 21.9373 21.0515 21.0401 21.8207 19.889C22.5898 18.7378 23.0004 17.3845 23.0004 16C22.9983 14.1441 22.2601 12.3649 20.9478 11.0526C19.6355 9.74028 17.8563 9.0021 16.0004 8.99999ZM16.0004 20C15.2093 20 14.4359 19.7654 13.7781 19.3259C13.1203 18.8863 12.6076 18.2616 12.3049 17.5307C12.0021 16.7998 11.9229 15.9955 12.0772 15.2196C12.2316 14.4437 12.6125 13.731 13.172 13.1716C13.7314 12.6121 14.4441 12.2312 15.22 12.0768C15.9959 11.9225 16.8002 12.0017 17.5311 12.3045C18.262 12.6072 18.8867 13.1199 19.3263 13.7777C19.7658 14.4355 20.0004 15.2089 20.0004 16C19.9992 17.0605 19.5774 18.0772 18.8275 18.8271C18.0776 19.577 17.0609 19.9988 16.0004 20ZM29.7511 18.5006L27.9924 16.1561C27.9926 16.05 27.9921 15.9445 27.991 15.8457L29.7503 13.5C29.8869 13.3178 29.9803 13.1068 30.0233 12.8832C30.0663 12.6595 30.0577 12.429 29.9984 12.2091C29.6751 11.0108 29.1985 9.85922 28.5805 8.78286C28.467 8.58523 28.31 8.41606 28.1213 8.28821C27.9327 8.16035 27.7174 8.07717 27.4918 8.04499L24.6018 7.63224C24.5248 7.55332 24.4469 7.4754 24.368 7.39849L23.9554 4.50974C23.9232 4.28425 23.84 4.06906 23.7123 3.88048C23.5845 3.69191 23.4155 3.5349 23.218 3.42136C22.142 2.80269 20.9907 2.32537 19.7926 2.00124C19.5726 1.94174 19.342 1.93316 19.1182 1.97613C18.8944 2.0191 18.6833 2.1125 18.501 2.24924L16.1656 4.00124C16.0553 3.99974 15.9451 3.99974 15.835 4.00124L13.5005 2.25024C13.3183 2.11363 13.1073 2.0203 12.8837 1.97731C12.66 1.93432 12.4295 1.9428 12.2096 2.00211C11.0113 2.32546 9.85968 2.80202 8.78326 3.41999C8.58567 3.5335 8.41653 3.69055 8.2887 3.8792C8.16087 4.06785 8.0777 4.28314 8.04551 4.50874L7.63276 7.39874C7.55376 7.47565 7.47584 7.55361 7.39901 7.63261L4.51014 8.04511C4.28466 8.07733 4.06949 8.16048 3.88094 8.28824C3.69238 8.416 3.53539 8.58502 3.42189 8.78249C2.80318 9.8585 2.32587 11.0098 2.00176 12.208C1.94229 12.428 1.93371 12.6586 1.97668 12.8824C2.01965 13.1061 2.11304 13.3172 2.24976 13.4995L4.00851 15.844C4.00814 15.9501 4.00876 16.0556 4.00989 16.1544L2.25064 18.5C2.11398 18.6822 2.02062 18.8931 1.97763 19.1168C1.93463 19.3405 1.94315 19.571 2.00251 19.7909C2.32584 20.9892 2.80239 22.1407 3.42039 23.2171C3.53387 23.4147 3.69091 23.5839 3.87956 23.7118C4.06821 23.8396 4.28352 23.9228 4.50914 23.955L7.39914 24.3677C7.47605 24.4467 7.55397 24.5246 7.63289 24.6015L8.04551 27.4902C8.07773 27.7157 8.16088 27.9309 8.28864 28.1195C8.4164 28.3081 8.58542 28.4651 8.78289 28.5786C9.85887 29.1973 11.0102 29.6746 12.2083 29.9987C12.4282 30.0582 12.6589 30.0668 12.8827 30.0238C13.1065 29.9809 13.3176 29.8875 13.4999 29.7507L15.8353 27.9989C15.9456 28.0004 16.0558 28.0004 16.1659 27.9989L18.5004 29.75C18.6826 29.8866 18.8935 29.98 19.1172 30.023C19.3409 30.066 19.5714 30.0575 19.7913 29.9981C20.9896 29.6748 22.1412 29.1982 23.2176 28.5802C23.4152 28.4667 23.5844 28.3097 23.7122 28.121C23.84 27.9324 23.9232 27.7171 23.9554 27.4915L24.3698 24.5902C24.4448 24.5154 24.519 24.4402 24.5881 24.3697L27.4906 23.9551C27.7161 23.9229 27.9313 23.8398 28.1199 23.712C28.3085 23.5842 28.4655 23.4152 28.579 23.2177C29.1977 22.1417 29.675 20.9904 29.9991 19.7922C30.0586 19.5723 30.0672 19.3416 30.0242 19.1179C29.9812 18.8941 29.8879 18.683 29.7511 18.5007V18.5006ZM26.3148 21.0925L23.6524 21.4727C23.3156 21.5209 23.0052 21.682 22.7721 21.9297C22.5633 22.1516 22.159 22.5681 21.9639 22.741C21.6974 22.9769 21.5235 23.2998 21.4733 23.6521L21.093 26.315C20.6396 26.5388 20.1718 26.7323 19.6928 26.8941L17.5416 25.2807C17.257 25.0672 16.9058 24.9618 16.5506 24.9834C16.1843 25.0056 15.817 25.0056 15.4506 24.9834C15.0954 24.9618 14.7441 25.0672 14.4594 25.2807L12.3076 26.8947C11.8288 26.7324 11.3612 26.5385 10.908 26.3144L10.5279 23.6522C10.4775 23.3 10.3037 22.9771 10.0373 22.7412C9.76251 22.4979 9.50274 22.2381 9.25939 21.9634C9.0235 21.697 8.70062 21.5231 8.34839 21.4729L5.68551 21.0926C5.46169 20.6392 5.26818 20.1715 5.10626 19.6925L6.71989 17.5411C6.92402 17.2689 7.02955 16.9354 7.01914 16.5954C7.01001 16.2914 7.00126 15.7115 7.01714 15.4502C7.03875 15.095 6.93335 14.7437 6.71976 14.459L5.10576 12.3075C5.26807 11.8286 5.46195 11.361 5.68614 10.9077L8.34826 10.5276C8.7005 10.4773 9.02339 10.3034 9.25926 10.037C9.50257 9.76227 9.7623 9.50255 10.037 9.25924C10.3035 9.02336 10.4774 8.70041 10.5276 8.34811L10.9079 5.68524C11.3613 5.46143 11.829 5.26797 12.308 5.10611L14.4593 6.71949C14.7439 6.93293 15.0951 7.03832 15.4503 7.01686C15.8166 6.99471 16.1839 6.99471 16.5503 7.01686C16.9054 7.03844 17.2567 6.93304 17.5414 6.71949L19.6931 5.10549C20.172 5.26781 20.6396 5.46169 21.0929 5.68586L21.473 8.34799C21.5234 8.70022 21.6972 9.0231 21.9636 9.25899C22.2384 9.50234 22.4982 9.7621 22.7415 10.0369C22.9774 10.3032 23.3003 10.4771 23.6525 10.5274L26.3153 10.9076C26.5391 11.361 26.7327 11.8287 26.8946 12.3077L25.281 14.4591C25.0769 14.7313 24.9713 15.0648 24.9818 15.4049C24.9909 15.7089 24.9996 16.2887 24.9838 16.5499C24.9621 16.9051 25.0675 17.2564 25.2811 17.5411L26.8951 19.6929C26.7328 20.1718 26.5389 20.6394 26.3148 21.0926V21.0925Z" fill="#268EA0"/>
</svg>
