<svg width="166" height="31" viewBox="0 0 166 31" fill="none" xmlns="http://www.w3.org/2000/svg">
<path d="M1.472 10.368C1.472 10.048 1.48267 9.70667 1.504 9.344C3.488 8.27733 5.62133 7.744 7.904 7.744C10.1867 7.744 11.8187 8.18133 12.8 9.056C13.8027 9.90933 14.304 11.3387 14.304 13.344V20.16C15.0507 20.3093 15.6373 20.4907 16.064 20.704V23.488C14.976 24 13.4187 24.256 11.392 24.256C11.1787 23.7013 10.9973 23.0293 10.848 22.24C9.93067 23.584 8.26667 24.256 5.856 24.256C4.42667 24.256 3.2 23.84 2.176 23.008C1.17333 22.176 0.672 21.0453 0.672 19.616C0.672 18.1867 1.14133 17.0667 2.08 16.256C3.04 15.424 4.45867 15.008 6.336 15.008H9.824V13.472C9.824 11.808 8.93867 10.976 7.168 10.976C6.50667 10.976 5.96267 11.04 5.536 11.168C5.49333 12.064 5.36533 12.7573 5.152 13.248H2.016C1.65333 12.5013 1.472 11.5413 1.472 10.368ZM7.232 20.992C8.32 20.992 9.184 20.672 9.824 20.032V17.408H7.584C6.048 17.408 5.28 17.9947 5.28 19.168C5.28 19.7013 5.44 20.1387 5.76 20.48C6.10133 20.8213 6.592 20.992 7.232 20.992ZM17.527 8C18.7003 7.744 19.7563 7.616 20.695 7.616C21.6337 7.616 22.4123 7.63733 23.031 7.68V9.28C23.543 8.85333 24.183 8.49067 24.951 8.192C25.719 7.89333 26.4123 7.744 27.031 7.744C29.463 7.744 31.0843 8.352 31.895 9.568C32.4283 9.056 33.1323 8.62933 34.007 8.288C34.8817 7.92533 35.6923 7.744 36.439 7.744C38.7857 7.744 40.3643 8.27733 41.175 9.344C41.9857 10.3893 42.391 12.3627 42.391 15.264V20.448C43.223 20.768 43.8097 21.1307 44.151 21.536L43.831 24H36.471L36.151 21.536C36.4497 21.1307 37.0363 20.768 37.911 20.448V14.112C37.911 12.9387 37.751 12.16 37.431 11.776C37.111 11.392 36.471 11.2 35.511 11.2C34.5723 11.2 33.6763 11.552 32.823 12.256C32.9297 12.9813 32.983 13.984 32.983 15.264V20.448C33.815 20.768 34.4017 21.1307 34.743 21.536L34.423 24H27.063L26.743 21.536C27.0417 21.1307 27.6283 20.768 28.503 20.448V14.112C28.503 12.9387 28.343 12.16 28.023 11.776C27.703 11.392 27.0737 11.2 26.135 11.2C25.1963 11.2 24.3003 11.5413 23.447 12.224V20.448C24.279 20.768 24.8657 21.1307 25.207 21.536L24.887 24H17.527L17.207 21.536C17.5057 21.1307 18.0923 20.768 18.967 20.448V11.552C18.2203 11.296 17.6337 10.9333 17.207 10.464L17.527 8ZM52.6302 24.256C50.1129 24.256 48.2463 23.584 47.0303 22.24C45.8143 20.896 45.2063 18.8693 45.2063 16.16C45.2063 13.4293 45.8783 11.3493 47.2223 9.92C48.5876 8.46933 50.5396 7.744 53.0783 7.744C55.6169 7.744 57.4943 8.384 58.7103 9.664C59.9476 10.944 60.5662 12.9493 60.5662 15.68C60.5662 18.3893 59.8729 20.5013 58.4863 22.016C57.1209 23.5093 55.1689 24.256 52.6302 24.256ZM49.8143 15.872C49.8143 19.2853 50.8383 20.992 52.8863 20.992C53.9316 20.992 54.6996 20.608 55.1903 19.84C55.7023 19.0507 55.9583 17.7707 55.9583 16C55.9583 12.672 54.9129 11.008 52.8223 11.008C51.7983 11.008 51.0409 11.3813 50.5503 12.128C50.0596 12.8533 49.8143 14.1013 49.8143 15.872ZM62.527 8C63.7003 7.744 64.7563 7.616 65.695 7.616C66.6337 7.616 67.4123 7.63733 68.031 7.68V9.28C68.5643 8.832 69.2683 8.46933 70.143 8.192C71.039 7.89333 71.8923 7.744 72.703 7.744C74.7937 7.744 76.255 8.23467 77.087 9.216C77.9403 10.1973 78.367 11.8933 78.367 14.304V20.448C79.199 20.768 79.7857 21.1307 80.127 21.536L79.807 24H72.447L72.127 21.536C72.4257 21.1307 73.0123 20.768 73.887 20.448V14.112C73.887 12.96 73.695 12.192 73.311 11.808C72.9483 11.4027 72.287 11.2 71.327 11.2C70.367 11.2 69.407 11.5413 68.447 12.224V20.448C69.279 20.768 69.8657 21.1307 70.207 21.536L69.887 24H62.527L62.207 21.536C62.5057 21.1307 63.0923 20.768 63.967 20.448V11.552C63.2203 11.296 62.6337 10.9333 62.207 10.464L62.527 8ZM81.6223 8C82.8169 7.72267 83.9263 7.584 84.9503 7.584C85.9743 7.584 86.8383 7.616 87.5423 7.68V20.448C88.3743 20.768 88.9609 21.1307 89.3023 21.536L88.9823 24H81.6223L81.3023 21.536C81.6009 21.1307 82.1876 20.768 83.0623 20.448V11.552C82.3156 11.296 81.7289 10.9333 81.3023 10.464L81.6223 8ZM85.2383 5.792C83.4676 5.792 82.5823 4.992 82.5823 3.392C82.5823 1.77067 83.4676 0.959999 85.2383 0.959999C87.0303 0.959999 87.9263 1.77067 87.9263 3.392C87.9263 4.992 87.0303 5.792 85.2383 5.792ZM97.942 27.392C99.8407 27.392 100.79 26.2507 100.79 23.968V22.56C99.7447 23.2 98.4327 23.52 96.854 23.52C94.8487 23.52 93.302 22.9333 92.214 21.76C91.1473 20.5867 90.614 18.6347 90.614 15.904C90.614 10.464 93.11 7.744 98.102 7.744C99.382 7.744 100.577 8.02133 101.686 8.576C101.899 8.192 102.219 8 102.646 8H105.27V23.744C105.27 26.0907 104.683 27.8293 103.51 28.96C102.358 30.0907 100.566 30.656 98.134 30.656C96.854 30.656 95.5313 30.5067 94.166 30.208C92.8007 29.9093 91.766 29.536 91.062 29.088C91.0407 28.896 91.03 28.704 91.03 28.512C91.03 27.3387 91.3073 26.208 91.862 25.12H94.678C94.9127 25.568 95.0833 26.1653 95.19 26.912C96.0007 27.232 96.918 27.392 97.942 27.392ZM95.03 15.712C95.03 17.312 95.2433 18.432 95.67 19.072C96.118 19.712 96.8647 20.032 97.91 20.032C98.9767 20.032 99.9367 19.7333 100.79 19.136V11.552C99.9367 11.1893 99.0087 11.008 98.006 11.008C96.022 11.008 95.03 12.576 95.03 15.712ZM115.099 24.256C112.582 24.256 110.715 23.584 109.499 22.24C108.283 20.896 107.675 18.8693 107.675 16.16C107.675 13.4293 108.347 11.3493 109.691 9.92C111.056 8.46933 113.008 7.744 115.547 7.744C118.086 7.744 119.963 8.384 121.179 9.664C122.416 10.944 123.035 12.9493 123.035 15.68C123.035 18.3893 122.342 20.5013 120.955 22.016C119.59 23.5093 117.638 24.256 115.099 24.256ZM112.283 15.872C112.283 19.2853 113.307 20.992 115.355 20.992C116.4 20.992 117.168 20.608 117.659 19.84C118.171 19.0507 118.427 17.7707 118.427 16C118.427 12.672 117.382 11.008 115.291 11.008C114.267 11.008 113.51 11.3813 113.019 12.128C112.528 12.8533 112.283 14.1013 112.283 15.872ZM134.276 11.936C132.654 11.936 131.534 12.2453 130.916 12.864V20.192C132.644 20.512 133.828 20.96 134.468 21.536L134.148 24H124.996L124.676 21.536C124.974 21.1307 125.561 20.768 126.436 20.448V11.552C125.689 11.296 125.102 10.9333 124.676 10.464L124.996 8C126.169 7.744 127.225 7.616 128.164 7.616C129.102 7.616 129.881 7.63733 130.5 7.68V9.696C130.99 9.12 131.62 8.65067 132.388 8.288C133.156 7.904 133.849 7.712 134.468 7.712C135.108 7.712 135.545 7.76533 135.78 7.872L135.684 12.032C135.257 11.968 134.788 11.936 134.276 11.936Z" fill="white"/>
<path d="M138.17 24.16C137.285 24.16 136.842 23.76 136.842 22.96C136.842 22.1493 137.285 21.744 138.17 21.744C139.066 21.744 139.514 22.1493 139.514 22.96C139.514 23.76 139.066 24.16 138.17 24.16ZM144.67 12.64C145.278 12.5013 145.859 12.432 146.414 12.432C146.968 12.432 147.443 12.448 147.838 12.48V22.08C148.158 22.1333 148.451 22.224 148.718 22.352V23.616C148.078 23.9573 147.267 24.128 146.286 24.128C146.179 24.0747 146.072 23.9787 145.966 23.84C145.87 23.7013 145.816 23.568 145.806 23.44C145.571 23.632 145.267 23.7973 144.894 23.936C144.52 24.064 144.152 24.128 143.79 24.128C142.638 24.128 141.8 23.8187 141.278 23.2C140.766 22.5707 140.51 21.5467 140.51 20.128C140.51 18.5173 140.904 17.3867 141.694 16.736C142.387 16.16 143.24 15.872 144.254 15.872C144.702 15.872 145.15 15.9253 145.598 16.032V14.448C145.107 14.3093 144.744 14.1173 144.51 13.872L144.67 12.64ZM144.126 22.496C144.734 22.496 145.224 22.3147 145.598 21.952V17.664C145.16 17.5573 144.696 17.504 144.206 17.504C143.715 17.504 143.358 17.7227 143.134 18.16C142.92 18.5867 142.814 19.232 142.814 20.096C142.814 20.9493 142.92 21.5627 143.134 21.936C143.347 22.3093 143.678 22.496 144.126 22.496ZM153.225 24.128C151.945 24.128 150.979 23.7867 150.329 23.104C149.689 22.4213 149.369 21.4293 149.369 20.128C149.369 19.3387 149.481 18.6613 149.705 18.096C149.929 17.52 150.233 17.0773 150.617 16.768C151.363 16.1707 152.233 15.872 153.225 15.872C154.217 15.872 154.974 16.128 155.497 16.64C156.03 17.1413 156.297 18.048 156.297 19.36C156.297 20.128 155.918 20.512 155.161 20.512H151.689C151.731 21.184 151.902 21.6587 152.201 21.936C152.51 22.2133 152.995 22.352 153.657 22.352C154.019 22.352 154.366 22.3093 154.697 22.224C155.027 22.1387 155.267 22.0533 155.417 21.968L155.641 21.84L156.121 23.12C156.057 23.1947 155.961 23.2907 155.833 23.408C155.715 23.5147 155.406 23.664 154.905 23.856C154.414 24.0373 153.854 24.128 153.225 24.128ZM154.233 19.088C154.254 18.9387 154.265 18.7573 154.265 18.544C154.265 18.3307 154.179 18.1067 154.009 17.872C153.838 17.6267 153.539 17.504 153.113 17.504C152.697 17.504 152.377 17.632 152.153 17.888C151.929 18.144 151.779 18.576 151.705 19.184L154.233 19.088ZM162.099 24.096H160.339L157.715 17.856C157.182 17.6853 156.825 17.4773 156.643 17.232L156.803 16H160.483L160.643 17.232C160.505 17.4027 160.275 17.5573 159.955 17.696L160.819 20.112C161.011 20.6133 161.15 21.1093 161.235 21.6L161.267 21.824H161.491C161.577 21.2907 161.726 20.7307 161.939 20.144L162.787 17.776C162.393 17.6267 162.115 17.4453 161.955 17.232L162.115 16H165.635L165.795 17.232C165.603 17.4773 165.251 17.6853 164.739 17.856L162.099 24.096Z" fill="#07628F"/>
</svg>
