<svg width="349" height="183" viewBox="0 0 349 183" fill="none" xmlns="http://www.w3.org/2000/svg">
<path d="M0 0H349V183H0V0Z" fill="#151515"/>
<g clip-path="url(#clip0_50_126)">
<g filter="url(#filter0_d_50_126)">
<path d="M31.5717 82.1128C31.5717 81.5538 31.5903 80.9575 31.6276 80.3239C35.0936 78.4604 38.8205 77.5287 42.8083 77.5287C46.7961 77.5287 49.6472 78.2927 51.3615 79.8207C53.1132 81.3115 53.989 83.8086 53.989 87.3118V99.2193C55.2935 99.4801 56.3183 99.797 57.0637 100.17V105.033C55.163 105.928 52.4424 106.375 48.9018 106.375C48.5292 105.406 48.2122 104.232 47.9514 102.853C46.3489 105.201 43.4419 106.375 39.2305 106.375C36.7334 106.375 34.5905 105.648 32.8015 104.195C31.0499 102.741 30.1741 100.766 30.1741 98.2689C30.1741 95.772 30.994 93.8153 32.6338 92.3991C34.3109 90.9456 36.7893 90.2188 40.069 90.2188H46.1625V87.5354C46.1625 84.6285 44.6158 83.175 41.5225 83.175C40.3672 83.175 39.4168 83.2868 38.6714 83.5104C38.5969 85.0757 38.3733 86.2869 38.0006 87.1441H32.522C31.8884 85.8396 31.5717 84.1625 31.5717 82.1128ZM41.6343 100.673C43.535 100.673 45.0444 100.114 46.1625 98.9957V94.4116H42.2493C39.5659 94.4116 38.2242 95.4365 38.2242 97.4863C38.2242 98.418 38.5037 99.1821 39.0627 99.7783C39.659 100.375 40.5162 100.673 41.6343 100.673ZM59.6196 77.9759C61.6693 77.5287 63.5141 77.3051 65.154 77.3051C66.7939 77.3051 68.1541 77.3423 69.235 77.4169V80.2121C70.1294 79.4667 71.2475 78.8331 72.5892 78.3113C73.9309 77.7896 75.1421 77.5287 76.2229 77.5287C80.4716 77.5287 83.304 78.5909 84.7203 80.7152C85.6519 79.8207 86.8818 79.0754 88.4099 78.4791C89.938 77.8455 91.3541 77.5287 92.6586 77.5287C96.7582 77.5287 99.516 78.4604 100.932 80.3239C102.349 82.15 103.057 85.5975 103.057 90.666V99.7224C104.51 100.281 105.535 100.915 106.131 101.623L105.572 105.928H92.7145L92.1555 101.623C92.6773 100.915 93.7021 100.281 95.2302 99.7224V88.6535C95.2302 86.6038 94.9506 85.2434 94.3916 84.5725C93.8326 83.9017 92.7145 83.5663 91.0374 83.5663C89.3975 83.5663 87.8322 84.1812 86.3415 85.4111C86.5279 86.6782 86.621 88.4299 86.621 90.666V99.7224C88.0745 100.281 89.0994 100.915 89.6957 101.623L89.1367 105.928H76.2788L75.7198 101.623C76.2416 100.915 77.2664 100.281 78.7945 99.7224V88.6535C78.7945 86.6038 78.515 85.2434 77.9559 84.5725C77.3969 83.9017 76.2975 83.5663 74.6576 83.5663C73.0177 83.5663 71.4524 84.1625 69.9617 85.3552V99.7224C71.4152 100.281 72.4402 100.915 73.0364 101.623L72.4774 105.928H59.6196L59.0605 101.623C59.5823 100.915 60.6071 100.281 62.1352 99.7224V84.1812C60.8307 83.734 59.806 83.1004 59.0605 82.2805L59.6196 77.9759ZM120.944 106.375C116.547 106.375 113.286 105.201 111.161 102.853C109.037 100.505 107.975 96.9645 107.975 92.2313C107.975 87.4608 109.149 83.8271 111.497 81.3301C113.882 78.7958 117.292 77.5287 121.727 77.5287C126.162 77.5287 129.442 78.6468 131.566 80.8829C133.728 83.1191 134.809 86.6223 134.809 91.3928C134.809 96.1259 133.597 99.8155 131.175 102.462C128.79 105.07 125.379 106.375 120.944 106.375ZM116.025 91.7282C116.025 97.6912 117.814 100.673 121.392 100.673C123.218 100.673 124.56 100.002 125.417 98.6603C126.311 97.2814 126.759 95.0452 126.759 91.9518C126.759 86.1378 124.932 83.2309 121.28 83.2309C119.491 83.2309 118.168 83.883 117.311 85.1875C116.454 86.4546 116.025 88.6348 116.025 91.7282ZM138.234 77.9759C140.284 77.5287 142.129 77.3051 143.768 77.3051C145.408 77.3051 146.769 77.3423 147.849 77.4169V80.2121C148.781 79.4294 150.011 78.7958 151.539 78.3113C153.104 77.7896 154.595 77.5287 156.011 77.5287C159.664 77.5287 162.217 78.3859 163.67 80.1003C165.161 81.8146 165.906 84.7775 165.906 88.9889V99.7224C167.36 100.281 168.385 100.915 168.981 101.623L168.422 105.928H155.564L155.005 101.623C155.527 100.915 156.552 100.281 158.08 99.7224V88.6535C158.08 86.641 157.744 85.2993 157.074 84.6285C156.44 83.9204 155.285 83.5663 153.608 83.5663C151.93 83.5663 150.253 84.1625 148.576 85.3552V99.7224C150.03 100.281 151.055 100.915 151.651 101.623L151.092 105.928H138.234L137.675 101.623C138.197 100.915 139.222 100.281 140.75 99.7224V84.1812C139.445 83.734 138.42 83.1004 137.675 82.2805L138.234 77.9759ZM171.593 77.9759C173.68 77.4914 175.618 77.2492 177.407 77.2492C179.196 77.2492 180.706 77.3051 181.935 77.4169V99.7224C183.389 100.281 184.414 100.915 185.01 101.623L184.451 105.928H171.593L171.034 101.623C171.556 100.915 172.581 100.281 174.109 99.7224V84.1812C172.804 83.734 171.78 83.1004 171.034 82.2805L171.593 77.9759ZM177.91 74.1186C174.817 74.1186 173.27 72.721 173.27 69.9258C173.27 67.0934 174.817 65.6771 177.91 65.6771C181.041 65.6771 182.606 67.0934 182.606 69.9258C182.606 72.721 181.041 74.1186 177.91 74.1186ZM200.104 111.854C203.421 111.854 205.079 109.86 205.079 105.872V103.412C203.253 104.53 200.961 105.089 198.203 105.089C194.7 105.089 191.998 104.064 190.097 102.014C188.233 99.9647 187.302 96.5546 187.302 91.7841C187.302 82.2805 191.662 77.5287 200.383 77.5287C202.619 77.5287 204.707 78.0132 206.644 78.9822C207.016 78.3113 207.575 77.9759 208.321 77.9759H212.906V105.481C212.906 109.58 211.88 112.617 209.831 114.593C207.818 116.568 204.688 117.556 200.439 117.556C198.203 117.556 195.892 117.295 193.507 116.773C191.122 116.251 189.314 115.599 188.084 114.816C188.047 114.481 188.028 114.146 188.028 113.81C188.028 111.76 188.513 109.785 189.482 107.884H194.401C194.811 108.667 195.109 109.71 195.296 111.015C196.712 111.574 198.315 111.854 200.104 111.854ZM195.016 91.4487C195.016 94.2439 195.389 96.2005 196.134 97.3186C196.917 98.4366 198.222 98.9957 200.048 98.9957C201.911 98.9957 203.588 98.4739 205.079 97.4304V84.1812C203.588 83.5476 201.967 83.2309 200.215 83.2309C196.749 83.2309 195.016 85.9701 195.016 91.4487ZM230.077 106.375C225.679 106.375 222.418 105.201 220.294 102.853C218.169 100.505 217.107 96.9645 217.107 92.2313C217.107 87.4608 218.281 83.8271 220.629 81.3301C223.014 78.7958 226.424 77.5287 230.859 77.5287C235.295 77.5287 238.574 78.6468 240.698 80.8829C242.859 83.1191 243.941 86.6223 243.941 91.3928C243.941 96.1259 242.73 99.8155 240.307 102.462C237.922 105.07 234.512 106.375 230.077 106.375ZM225.157 91.7282C225.157 97.6912 226.946 100.673 230.524 100.673C232.35 100.673 233.691 100.002 234.549 98.6603C235.443 97.2814 235.891 95.0452 235.891 91.9518C235.891 86.1378 234.065 83.2309 230.412 83.2309C228.623 83.2309 227.301 83.883 226.443 85.1875C225.585 86.4546 225.157 88.6348 225.157 91.7282ZM263.579 84.8521C260.745 84.8521 258.788 85.3924 257.709 86.4733V99.2752C260.728 99.8342 262.796 100.617 263.914 101.623L263.355 105.928H247.367L246.808 101.623C247.328 100.915 248.354 100.281 249.882 99.7224V84.1812C248.577 83.734 247.552 83.1004 246.808 82.2805L247.367 77.9759C249.416 77.5287 251.261 77.3051 252.901 77.3051C254.54 77.3051 255.901 77.3423 256.982 77.4169V80.9388C257.838 79.9325 258.939 79.1126 260.28 78.4791C261.622 77.8082 262.833 77.4728 263.914 77.4728C265.032 77.4728 265.796 77.566 266.206 77.7523L266.038 85.0198C265.292 84.908 264.473 84.8521 263.579 84.8521Z" fill="white"/>
</g>
<g filter="url(#filter1_d_50_126)">
<path d="M270.381 106.207C268.835 106.207 268.061 105.508 268.061 104.111C268.061 102.695 268.835 101.986 270.381 101.986C271.947 101.986 272.729 102.695 272.729 104.111C272.729 105.508 271.947 106.207 270.381 106.207ZM281.737 86.0819C282.799 85.8396 283.814 85.7185 284.783 85.7185C285.751 85.7185 286.581 85.7465 287.271 85.8024V102.573C287.83 102.667 288.342 102.825 288.809 103.049V105.257C287.69 105.853 286.274 106.151 284.56 106.151C284.373 106.058 284.186 105.89 284.001 105.648C283.833 105.406 283.739 105.173 283.721 104.949C283.311 105.285 282.78 105.574 282.128 105.816C281.475 106.039 280.832 106.151 280.199 106.151C278.187 106.151 276.723 105.611 275.811 104.53C274.916 103.431 274.469 101.642 274.469 99.1633C274.469 96.3495 275.158 94.3743 276.538 93.2375C277.748 92.2313 279.239 91.7281 281.01 91.7281C281.793 91.7281 282.575 91.8213 283.358 92.0077V89.2404C282.5 88.9981 281.866 88.6627 281.457 88.2342L281.737 86.0819ZM280.786 103.3C281.849 103.3 282.705 102.983 283.358 102.35V94.8587C282.593 94.6723 281.782 94.5792 280.926 94.5792C280.068 94.5792 279.445 94.9613 279.053 95.7253C278.679 96.4707 278.494 97.598 278.494 99.1074C278.494 100.598 278.679 101.67 279.053 102.322C279.425 102.974 280.004 103.3 280.786 103.3ZM296.682 106.151C294.446 106.151 292.758 105.555 291.623 104.362C290.505 103.17 289.946 101.437 289.946 99.1633C289.946 97.7844 290.141 96.601 290.533 95.6134C290.924 94.6072 291.455 93.8338 292.126 93.2934C293.429 92.25 294.949 91.7281 296.682 91.7281C298.415 91.7281 299.738 92.1754 300.651 93.0698C301.582 93.9456 302.049 95.5296 302.049 97.8216C302.049 99.1633 301.387 99.8342 300.064 99.8342H293.999C294.072 101.008 294.371 101.837 294.893 102.322C295.433 102.806 296.28 103.049 297.437 103.049C298.069 103.049 298.676 102.974 299.254 102.825C299.83 102.676 300.25 102.527 300.512 102.378L300.903 102.154L301.741 104.39C301.63 104.521 301.462 104.689 301.238 104.893C301.032 105.08 300.492 105.341 299.617 105.676C298.759 105.993 297.781 106.151 296.682 106.151ZM298.443 97.3465C298.48 97.0856 298.499 96.7687 298.499 96.3961C298.499 96.0235 298.349 95.6321 298.052 95.2221C297.753 94.7936 297.231 94.5792 296.487 94.5792C295.76 94.5792 295.201 94.8028 294.809 95.2501C294.418 95.6973 294.156 96.452 294.027 97.5142L298.443 97.3465ZM312.185 106.095H309.11L304.526 95.1942C303.595 94.896 302.971 94.5326 302.653 94.104L302.933 91.9518H309.362L309.641 94.104C309.4 94.4023 308.998 94.6723 308.439 94.9146L309.949 99.1354C310.284 100.011 310.527 100.878 310.676 101.735L310.731 102.126H311.123C311.273 101.195 311.533 100.216 311.905 99.1913L313.387 95.0544C312.699 94.7936 312.213 94.4767 311.933 94.104L312.213 91.9518H318.362L318.642 94.104C318.306 94.5326 317.691 94.896 316.797 95.1942L312.185 106.095Z" fill="#07628F"/>
</g>
</g>
<defs>
<filter id="filter0_d_50_126" x="26.1741" y="65.6771" width="244.032" height="59.8785" filterUnits="userSpaceOnUse" color-interpolation-filters="sRGB">
<feFlood flood-opacity="0" result="BackgroundImageFix"/>
<feColorMatrix in="SourceAlpha" type="matrix" values="0 0 0 0 0 0 0 0 0 0 0 0 0 0 0 0 0 0 127 0" result="hardAlpha"/>
<feOffset dy="4"/>
<feGaussianBlur stdDeviation="2"/>
<feComposite in2="hardAlpha" operator="out"/>
<feColorMatrix type="matrix" values="0 0 0 0 0 0 0 0 0 0 0 0 0 0 0 0 0 0 0.25 0"/>
<feBlend mode="normal" in2="BackgroundImageFix" result="effect1_dropShadow_50_126"/>
<feBlend mode="normal" in="SourceGraphic" in2="effect1_dropShadow_50_126" result="shape"/>
</filter>
<filter id="filter1_d_50_126" x="264.061" y="85.7185" width="58.5806" height="28.4886" filterUnits="userSpaceOnUse" color-interpolation-filters="sRGB">
<feFlood flood-opacity="0" result="BackgroundImageFix"/>
<feColorMatrix in="SourceAlpha" type="matrix" values="0 0 0 0 0 0 0 0 0 0 0 0 0 0 0 0 0 0 127 0" result="hardAlpha"/>
<feOffset dy="4"/>
<feGaussianBlur stdDeviation="2"/>
<feComposite in2="hardAlpha" operator="out"/>
<feColorMatrix type="matrix" values="0 0 0 0 0 0 0 0 0 0 0 0 0 0 0 0 0 0 0.25 0"/>
<feBlend mode="normal" in2="BackgroundImageFix" result="effect1_dropShadow_50_126"/>
<feBlend mode="normal" in="SourceGraphic" in2="effect1_dropShadow_50_126" result="shape"/>
</filter>
<clipPath id="clip0_50_126">
<rect width="290" height="54.1566" fill="white" transform="translate(29 64)"/>
</clipPath>
</defs>
</svg>
