<svg width="349" height="183" viewBox="0 0 349 183" fill="none" xmlns="http://www.w3.org/2000/svg">
<path d="M0 0H349V183H0V0Z" fill="white"/>
<g clip-path="url(#clip0_50_127)">
<g filter="url(#filter0_d_50_127)">
<path fill-rule="evenodd" clip-rule="evenodd" d="M225.971 80.157C222.913 78.5202 219.38 79.4712 215.647 82.9748C215.317 79.9364 215.317 79.9364 212.379 79.9217C211.953 79.9195 211.551 79.9202 211.142 79.9211C210.934 79.9213 210.725 79.9217 210.51 79.9217C208.781 79.9217 208.781 80.2369 208.781 81.6384C208.809 86.5288 208.812 91.4196 208.814 96.3104C208.816 99.9784 208.818 103.647 208.831 107.315C208.832 107.819 208.811 108.401 208.79 108.998C208.74 110.371 208.688 111.82 208.9 112.585H214.148C215.552 112.74 215.582 112.044 215.582 110.818C215.552 108.162 215.562 105.508 215.572 102.881C215.577 101.579 215.582 100.282 215.582 98.9959C215.831 98.8341 215.87 98.8903 215.939 98.9909C215.949 99.0052 215.96 99.0203 215.972 99.0364C220.034 104.632 226.701 103.366 229.699 99.1565C232.387 95.8173 232.349 92.5641 231.968 88.946C231.773 87.0979 231.123 85.3273 230.077 83.7936C229.03 82.2594 227.619 81.0098 225.971 80.157ZM215.657 91.3434C215.892 94.5965 217.401 96.4637 220.554 96.8191C223.038 96.8691 225.272 94.3164 225.262 91.4086C225.267 88.8258 222.763 85.9828 220.454 85.9529C218.045 85.9228 215.462 88.6007 215.657 91.3434Z" fill="#1A154B"/>
</g>
<g filter="url(#filter1_d_50_127)">
<path d="M147.664 82.244C148.299 81.8186 148.929 81.3729 149.578 80.9677C152.202 79.316 155.075 78.9008 157.829 80.2071C160.702 81.5682 161.851 84.3412 161.952 87.3643C161.952 92.0636 161.952 96.6087 162.016 101.233C162.016 102.234 161.652 102.635 160.677 102.574C158.928 102.574 156.429 102.574 155.43 102.574C155.43 101.233 155.43 98.8205 155.35 97.1545C155.273 94.5985 155.355 91.961 155.3 89.4714C155.278 88.4793 154.94 87.5201 154.336 86.7335C153.938 86.0917 153.342 85.598 152.639 85.3272C151.935 85.0559 151.162 85.0225 150.438 85.2318C148.729 85.6575 148.094 87.054 147.759 88.6255C147.027 92.0636 147.435 100.072 147.435 102.574C146.185 102.574 144.186 102.574 142.937 102.574C140.688 102.574 140.573 102.109 140.593 100.212C140.698 89.7767 140.673 79.3408 140.593 68.9056C140.593 67.5187 140.688 67.0379 142.187 67.0379C143.937 67.0379 147.435 66.849 147.435 67.2883C147.435 67.7889 147.435 70.5415 147.435 72.2931C147.435 75.5467 147.419 78.6199 147.435 81.8032C147.469 82.018 147.435 82.0532 147.664 82.244Z" fill="#1A154B"/>
</g>
<g filter="url(#filter2_d_50_127)">
<path d="M303.852 82.1039C305.237 81.8133 305.882 80.8023 306.885 80.3217C312.099 77.8196 317.131 80.2671 318.185 85.9628C319.024 90.4675 318.444 95.047 318.564 99.5969C318.64 102.445 318.564 102.45 315.786 102.45C311.833 102.45 311.898 102.45 311.818 98.5106C311.743 95.1522 312.188 91.7785 311.499 88.4402C311.089 86.4381 309.844 85.1818 308.126 85.1218C306.406 85.0619 304.897 86.278 304.317 88.125C303.959 89.4435 303.811 90.8099 303.879 92.1743C303.879 95.1771 303.848 98.1802 303.907 101.183C303.907 102.154 303.7 102.574 302.599 102.574C301.349 102.574 299.121 102.574 297.852 102.574C297.102 101.823 297.366 98.9808 297.35 97.3188C297.35 92.0634 297.35 86.8082 297.35 81.5528C297.322 80.0863 297.466 79.9165 298.955 79.9165C299.928 79.9165 300.85 79.9165 301.759 79.9165C303.349 79.9165 303.852 79.9165 303.852 82.1039Z" fill="#1A154B"/>
</g>
<g filter="url(#filter3_d_50_127)">
<path d="M241.882 72.0334C243.631 72.0334 243.881 72.2045 243.881 73.7945C243.881 74.5 243.881 77.0481 243.881 77.7988C243.881 79.3003 243.881 79.9417 245.795 79.9417C246.879 79.9417 246.879 80.341 246.879 81.052C246.879 82.0926 246.879 82.8493 246.879 83.805C246.879 85.3504 246.629 86.0572 244.881 86.0572C243.631 86.0572 243.881 87.079 243.881 87.3087C243.881 91.8129 243.896 96.3784 243.986 100.853C243.986 102.204 243.661 102.679 242.382 102.574C240.883 102.574 238.634 102.574 237.385 102.574C237.385 101.323 237.41 99.1708 237.385 97.5691C237.385 94.0656 237.385 90.5619 237.385 87.3087C237.385 86.3076 237.135 86.0572 235.885 86.0572C234.886 86.0572 234.641 85.807 234.641 84.5764C234.636 83.805 234.636 82.8041 234.641 81.9538C234.636 80.0513 234.641 79.8866 236.375 79.8866C237.135 79.8866 237.385 79.442 237.385 78.5498C237.385 77.0226 237.385 75.2962 237.385 73.7945C237.385 71.7929 237.259 72.0334 239.189 72.0334C239.634 72.0334 241.383 72.0334 241.882 72.0334Z" fill="#1A154B"/>
</g>
<g filter="url(#filter4_d_50_127)">
<path d="M194.963 84.6412C194.963 79.336 194.993 74.0255 194.933 68.7202C194.917 67.2884 194.908 67.038 196.407 67.038C197.616 67.038 199.241 67.038 200.405 67.038C201.652 67.038 201.404 67.2908 201.404 68.5394C201.404 79.0505 201.654 89.8121 201.711 100.572C201.719 102.187 201.155 102.574 199.905 102.574C198.406 102.574 195.657 102.825 195.318 102.199C194.658 101.823 194.928 98.9756 194.908 97.3188C194.863 93.0698 194.963 88.8907 194.963 84.6412Z" fill="#1A154B"/>
</g>
<g filter="url(#filter5_d_50_127)">
<path d="M257.699 82.9695C258.508 82.1537 259.258 81.4379 259.958 80.6821C260.453 80.1229 261.122 79.7442 261.857 79.6063C263.076 79.386 263.869 79.5507 263.869 81.3024C263.869 81.8029 263.869 82.3035 263.869 82.8039C263.869 83.865 263.97 85.051 263.869 86.0572C263.44 87.4939 261.966 86.408 261.046 86.7234C258.802 87.4943 257.738 89.7613 257.873 92.8143C257.993 95.6172 257.873 98.3196 257.838 101.238C257.873 102.284 257.553 102.614 256.624 102.574C254.875 102.574 252.126 102.574 250.891 102.574C250.891 101.073 250.907 98.7857 250.891 97.0038C250.833 91.8136 250.876 86.238 250.876 81.0524C250.876 80.0513 251.018 79.9417 251.905 79.9417C252.588 79.9417 253.678 79.9417 254.26 79.9417C257.343 79.9364 257.343 79.9364 257.699 82.9695Z" fill="#1A154B"/>
</g>
<g filter="url(#filter6_d_50_127)">
<path fill-rule="evenodd" clip-rule="evenodd" d="M283.11 81.3024C283.11 81.803 283.055 82.2794 282.998 82.7444C282.85 82.6003 282.726 82.479 282.619 82.3749C282.375 82.1353 282.222 81.9846 282.046 81.8487C277.648 78.3649 273.555 78.5402 269.717 82.5443C266 86.4434 265.694 91.0879 267.269 95.9533C268.263 99.0263 270.321 101.364 273.428 102.365C277.382 103.651 280.491 102.15 283.055 98.4106V100.788C283.055 102.074 283.524 102.474 284.658 102.465C285.458 102.458 286.243 102.46 287.028 102.463C287.423 102.464 287.815 102.465 288.212 102.465C289.605 102.465 289.767 102.219 289.767 100.963C289.723 98.0045 289.727 95.0439 289.73 92.0831C289.732 89.7347 289.736 87.3859 289.716 85.037C289.712 84.6865 289.716 84.3071 289.721 83.9181C289.738 82.4621 289.756 80.8772 289.385 80.2218C288.548 79.8787 286.993 79.8987 285.504 79.918C285.166 79.9224 284.83 79.9266 284.507 79.9266C283.358 79.9266 283.11 80.0107 283.11 81.3024ZM278.092 96.7938C280.685 96.939 283.033 94.1311 282.99 91.1279C282.948 88.4601 280.565 85.9375 278.167 86.028C275.474 86.128 273.505 88.6807 273.535 91.9239C273.509 92.5448 273.607 93.1642 273.823 93.7465C274.039 94.329 274.37 94.8625 274.793 95.3156C275.219 95.769 275.729 96.1331 276.296 96.387C276.861 96.6407 277.471 96.7789 278.092 96.7938Z" fill="#1A154B"/>
</g>
<g filter="url(#filter7_d_50_127)">
<path fill-rule="evenodd" clip-rule="evenodd" d="M179.192 92.7014C179.962 92.6981 180.731 92.6948 181.501 92.6948L185.808 92.7096C190.331 92.7096 190.431 92.6847 189.306 88.235C187.128 79.6063 178.232 77.2487 171.886 81.318C167.683 84.0106 166.179 88.4854 167.029 93.3654C167.788 97.6996 170.107 101.163 174.654 102.329C179.552 103.581 184.179 102.94 187.677 98.936C188.617 97.8485 189.087 97.377 188.999 97.0609C188.91 96.74 188.245 96.5797 186.913 96.098C186.579 95.977 186.24 95.8682 185.902 95.7593C185.598 95.662 185.295 95.5643 184.994 95.4575C183.775 95.027 182.78 95.0121 181.85 96.2432C180.621 97.86 178.687 97.9048 176.938 97.5096C175.104 97.089 174.33 95.4123 173.7 93.7808C173.395 92.9848 173.71 92.6948 174.575 92.6948C176.114 92.7148 177.653 92.708 179.192 92.7014ZM177.241 88.1735C177.594 88.1816 177.946 88.1902 178.297 88.1902C178.685 88.1902 179.073 88.1845 179.461 88.1794C180.192 88.1689 180.922 88.159 181.651 88.1849C182.525 88.2302 182.73 87.9097 182.525 87.099C182.288 86.2481 181.794 85.4914 181.11 84.9331C180.427 84.3748 179.587 84.0422 178.707 83.9807C176.384 83.8858 174.66 84.8964 174.07 86.7586C173.775 87.6896 173.88 88.3101 175.134 88.1902C175.831 88.1401 176.536 88.1568 177.241 88.1735Z" fill="#1A154B"/>
</g>
<g filter="url(#filter8_d_50_127)">
<path d="M29.1299 95.0817C32.8496 95.6049 36.6787 96.1685 40.3685 96.7411C45.043 97.467 51.0103 97.8219 55.4859 98.3199C55.4859 115.661 55.5605 133.132 55.6152 150.478C55.6152 152.072 55.3566 152.669 53.5615 152.64C45.9282 152.525 38.2948 152.58 30.6864 152.605C29.7366 152.605 29.1249 152.64 29.1299 151.3C29.1299 133.191 29.1299 95.0817 29.1299 95.0817Z" fill="#1A154B"/>
</g>
<g filter="url(#filter9_d_50_127)">
<path d="M108.456 77.2983C101.135 80.1822 89.5834 81.5412 81.9708 80.3015C81.9708 64.4202 81.9208 47.7937 81.8611 31.9124C81.8611 30.3158 82.3059 29.9855 83.8252 30.0005C91.4409 30.0806 99.0563 30.0806 106.672 30.0005C108.046 30.0005 108.462 30.2958 108.456 31.7273C108.456 46.7672 108.441 62.233 108.456 77.2983Z" fill="#1A154B"/>
</g>
<g filter="url(#filter10_d_50_127)">
<path d="M55.4853 74.5471C49.9884 72.545 44.9912 69.7922 40.4087 67.1651C36.4959 64.7872 32.4981 62.5348 29 59.2815C29 50.022 29.0233 40.3789 29 31.0026C28.9981 30.2118 29.1099 30.0171 29.9545 30.0221C38.13 30.0521 45.8524 30.0521 54.0311 30.0221C55.3296 30.0173 55.4853 30.2518 55.4853 30.9475C55.5121 40.0101 55.5121 49.809 55.4853 58.8716C55.4953 63.7499 55.4986 69.6756 55.4853 74.5471Z" fill="#1A154B"/>
</g>
<g filter="url(#filter11_d_50_127)">
<path d="M81.9755 98.3935C84.906 97.4056 88.0862 97.9542 91.0863 97.3662C96.5147 96.3273 101.849 94.8518 107.035 92.9545C107.494 92.7814 107.982 92.6927 108.456 92.564C108.456 103.344 108.456 114.086 108.456 124.909C108.456 126.297 108.087 126.609 106.707 126.599C99.0613 126.52 91.4653 126.599 83.8097 126.599C82.5339 126.599 81.9707 126.349 81.9707 124.939C81.9857 116.237 81.9703 107.079 81.9755 98.3935Z" fill="#1A154B"/>
</g>
<g filter="url(#filter12_d_50_127)">
<path d="M129.629 63.3497C133.122 59.2736 136.067 54.7573 138.39 49.916C140.266 53.1721 136.653 61.394 135.551 64.5709C120.907 106.811 63.6814 100.623 29 95.3168V59.1963C29.6396 59.1313 30.0894 59.6009 30.5292 59.9663C55.7463 81.9049 105.939 90.4842 129.629 63.3497Z" fill="#BBB8B7"/>
</g>
<g filter="url(#filter13_d_50_127)">
<path d="M222.973 115.947L223.65 115.54C224.127 116.419 224.678 116.858 225.302 116.858C225.57 116.858 225.821 116.797 226.056 116.674C226.29 116.547 226.469 116.379 226.592 116.169C226.715 115.96 226.776 115.737 226.776 115.502C226.776 115.234 226.686 114.972 226.505 114.715C226.256 114.36 225.801 113.934 225.14 113.434C224.475 112.931 224.062 112.568 223.899 112.344C223.618 111.967 223.477 111.56 223.477 111.122C223.477 110.775 223.559 110.459 223.726 110.173C223.892 109.887 224.125 109.662 224.425 109.5C224.728 109.333 225.057 109.25 225.411 109.25C225.787 109.25 226.137 109.344 226.462 109.532C226.791 109.717 227.138 110.059 227.503 110.558L226.852 111.052C226.552 110.654 226.296 110.392 226.083 110.265C225.873 110.138 225.644 110.075 225.395 110.075C225.073 110.075 224.809 110.173 224.604 110.368C224.401 110.563 224.3 110.804 224.3 111.09C224.3 111.264 224.336 111.432 224.408 111.594C224.481 111.758 224.613 111.935 224.804 112.126C224.909 112.228 225.252 112.494 225.834 112.924C226.524 113.434 226.996 113.888 227.253 114.286C227.51 114.684 227.638 115.084 227.638 115.486C227.638 116.065 227.418 116.567 226.977 116.994C226.54 117.421 226.007 117.635 225.378 117.635C224.895 117.635 224.455 117.506 224.062 117.249C223.668 116.989 223.305 116.555 222.973 115.947ZM231.878 111.377C232.785 111.377 233.536 111.707 234.132 112.365C234.674 112.966 234.945 113.677 234.945 114.498C234.945 115.323 234.657 116.045 234.083 116.663C233.512 117.278 232.777 117.586 231.878 117.586C230.975 117.586 230.236 117.278 229.662 116.663C229.091 116.045 228.806 115.323 228.806 114.498C228.806 113.68 229.076 112.971 229.618 112.371C230.214 111.709 230.968 111.377 231.878 111.377ZM231.878 112.121C231.249 112.121 230.709 112.354 230.258 112.821C229.806 113.288 229.581 113.852 229.581 114.514C229.581 114.941 229.683 115.339 229.89 115.708C230.095 116.077 230.373 116.363 230.724 116.565C231.074 116.764 231.459 116.864 231.878 116.864C232.297 116.864 232.682 116.764 233.032 116.565C233.383 116.363 233.661 116.077 233.866 115.708C234.072 115.339 234.175 114.941 234.175 114.514C234.175 113.852 233.948 113.288 233.493 112.821C233.041 112.354 232.503 112.121 231.878 112.121ZM236.134 109.25H236.893V117.434H236.134V109.25ZM238.261 111.529H239.025V114.286C239.025 114.959 239.061 115.422 239.133 115.676C239.242 116.037 239.448 116.323 239.751 116.533C240.058 116.743 240.423 116.848 240.846 116.848C241.268 116.848 241.626 116.747 241.919 116.544C242.215 116.338 242.419 116.068 242.531 115.735C242.607 115.507 242.645 115.024 242.645 114.286V111.529H243.419V114.427C243.419 115.241 243.323 115.855 243.132 116.267C242.944 116.68 242.659 117.003 242.276 117.239C241.897 117.47 241.42 117.586 240.846 117.586C240.272 117.586 239.791 117.47 239.404 117.239C239.022 117.003 238.734 116.678 238.543 116.262C238.355 115.842 238.261 115.212 238.261 114.373V111.529ZM250.721 112.756L250.12 113.13C249.598 112.439 248.89 112.094 247.989 112.094C247.272 112.094 246.673 112.325 246.196 112.789C245.723 113.252 245.487 113.814 245.487 114.476C245.487 114.907 245.595 115.312 245.812 115.692C246.032 116.072 246.332 116.366 246.711 116.577C247.095 116.786 247.523 116.891 247.996 116.891C248.861 116.891 249.57 116.546 250.12 115.854L250.721 116.251C250.44 116.674 250.061 117.003 249.583 117.239C249.11 117.47 248.569 117.586 247.963 117.586C247.031 117.586 246.258 117.289 245.644 116.696C245.03 116.102 244.723 115.381 244.723 114.53C244.723 113.959 244.865 113.429 245.151 112.94C245.44 112.448 245.835 112.065 246.338 111.79C246.839 111.515 247.4 111.377 248.022 111.377C248.412 111.377 248.789 111.437 249.149 111.557C249.516 111.676 249.823 111.832 250.076 112.023C250.329 112.215 250.545 112.459 250.721 112.756ZM247.632 117.434H248.109L248.018 118.074C248.1 118.063 248.168 118.058 248.223 118.058C248.399 118.058 248.547 118.112 248.667 118.221C248.787 118.333 248.846 118.472 248.846 118.639C248.846 118.877 248.737 119.08 248.521 119.247C248.303 119.413 247.998 119.496 247.605 119.496C247.283 119.496 246.982 119.442 246.7 119.333L246.819 118.959C247.052 119.031 247.267 119.067 247.47 119.067C247.741 119.067 247.93 119.033 248.039 118.964C248.146 118.899 248.201 118.816 248.201 118.715C248.201 118.653 248.17 118.599 248.109 118.552C248.052 118.505 247.97 118.481 247.865 118.481C247.778 118.481 247.651 118.498 247.486 118.53L247.632 117.434ZM254.864 111.377C255.771 111.377 256.521 111.707 257.117 112.365C257.66 112.966 257.93 113.677 257.93 114.498C257.93 115.323 257.642 116.045 257.069 116.663C256.497 117.278 255.763 117.586 254.864 117.586C253.959 117.586 253.222 117.278 252.647 116.663C252.075 116.045 251.792 115.323 251.792 114.498C251.792 113.68 252.062 112.971 252.603 112.371C253.201 111.709 253.953 111.377 254.864 111.377ZM254.864 112.121C254.234 112.121 253.695 112.354 253.244 112.821C252.793 113.288 252.566 113.852 252.566 114.514C252.566 114.941 252.668 115.339 252.876 115.708C253.081 116.077 253.36 116.363 253.709 116.565C254.06 116.764 254.446 116.864 254.864 116.864C255.283 116.864 255.667 116.764 256.018 116.565C256.369 116.363 256.646 116.077 256.853 115.708C257.058 115.339 257.16 114.941 257.16 114.514C257.16 113.852 256.933 113.288 256.478 112.821C256.026 112.354 255.488 112.121 254.864 112.121ZM256.467 109.337L256.846 109.863C256.587 110.051 256.367 110.178 256.186 110.243C256.009 110.309 255.821 110.341 255.621 110.341C255.361 110.341 255.095 110.274 254.821 110.14C254.585 110.024 254.435 109.957 254.369 109.94C254.284 109.914 254.19 109.901 254.088 109.901C253.961 109.901 253.842 109.925 253.726 109.972C253.613 110.015 253.449 110.117 253.233 110.276L252.876 109.722C253.203 109.371 253.61 109.196 254.094 109.196C254.326 109.196 254.6 109.268 254.923 109.413C255.23 109.554 255.473 109.625 255.649 109.625C255.848 109.625 256.12 109.529 256.467 109.337ZM264.197 115.475L264.835 115.811C264.626 116.224 264.384 116.557 264.109 116.81C263.835 117.063 263.527 117.256 263.183 117.391C262.84 117.521 262.452 117.586 262.018 117.586C261.057 117.586 260.307 117.271 259.764 116.641C259.223 116.008 258.953 115.294 258.953 114.498C258.953 113.749 259.181 113.082 259.639 112.495C260.222 111.75 261 111.377 261.975 111.377C262.98 111.377 263.782 111.759 264.382 112.523C264.807 113.062 265.023 113.735 265.032 114.541H259.731C259.746 115.229 259.964 115.793 260.387 116.235C260.81 116.672 261.331 116.891 261.953 116.891C262.254 116.891 262.544 116.839 262.825 116.734C263.111 116.629 263.353 116.489 263.551 116.316C263.752 116.142 263.965 115.862 264.197 115.475ZM264.197 113.885C264.096 113.479 263.948 113.156 263.752 112.913C263.562 112.671 263.307 112.475 262.989 112.327C262.67 112.179 262.337 112.105 261.986 112.105C261.408 112.105 260.911 112.291 260.496 112.664C260.193 112.935 259.962 113.342 259.807 113.885H264.197ZM269.303 112.175L268.817 112.68C268.411 112.286 268.017 112.088 267.629 112.088C267.384 112.088 267.173 112.17 266.996 112.332C266.822 112.496 266.735 112.685 266.735 112.903C266.735 113.094 266.807 113.277 266.953 113.451C267.097 113.628 267.4 113.836 267.862 114.075C268.427 114.368 268.808 114.65 269.011 114.921C269.209 115.196 269.31 115.505 269.31 115.849C269.31 116.334 269.14 116.745 268.799 117.081C268.459 117.418 268.036 117.586 267.526 117.586C267.186 117.586 266.861 117.512 266.551 117.363C266.244 117.215 265.989 117.01 265.786 116.75L266.264 116.207C266.65 116.645 267.062 116.864 267.493 116.864C267.796 116.864 268.056 116.766 268.27 116.571C268.481 116.376 268.588 116.146 268.588 115.882C268.588 115.665 268.518 115.471 268.376 115.301C268.237 115.135 267.919 114.925 267.424 114.672C266.892 114.397 266.532 114.125 266.34 113.858C266.148 113.59 266.052 113.284 266.052 112.94C266.052 112.492 266.205 112.119 266.508 111.823C266.815 111.526 267.201 111.377 267.668 111.377C268.209 111.377 268.754 111.643 269.303 112.175ZM278.472 115.475L279.111 115.811C278.901 116.224 278.659 116.557 278.385 116.81C278.11 117.063 277.803 117.256 277.458 117.391C277.116 117.521 276.728 117.586 276.294 117.586C275.332 117.586 274.582 117.271 274.039 116.641C273.498 116.008 273.226 115.294 273.226 114.498C273.226 113.749 273.457 113.082 273.915 112.495C274.497 111.75 275.275 111.377 276.25 111.377C277.255 111.377 278.058 111.759 278.655 112.523C279.082 113.062 279.298 113.735 279.307 114.541H274.006C274.022 115.229 274.24 115.793 274.663 116.235C275.086 116.672 275.607 116.891 276.228 116.891C276.529 116.891 276.819 116.839 277.1 116.734C277.386 116.629 277.628 116.489 277.827 116.316C278.025 116.142 278.241 115.862 278.472 115.475ZM278.472 113.885C278.372 113.479 278.223 113.156 278.027 112.913C277.835 112.671 277.582 112.475 277.264 112.327C276.946 112.179 276.612 112.105 276.261 112.105C275.683 112.105 275.186 112.291 274.772 112.664C274.469 112.935 274.237 113.342 274.083 113.885H278.472ZM280.609 111.529H281.363V112.55C281.627 112.174 281.897 111.899 282.174 111.725C282.558 111.493 282.961 111.377 283.384 111.377C283.668 111.377 283.941 111.434 284.196 111.546C284.453 111.658 284.662 111.808 284.826 111.996C284.987 112.181 285.129 112.447 285.249 112.794C285.502 112.331 285.816 111.98 286.195 111.741C286.574 111.499 286.982 111.377 287.421 111.377C287.828 111.377 288.188 111.481 288.5 111.687C288.814 111.893 289.045 112.181 289.198 112.55C289.35 112.919 289.424 113.472 289.424 114.21V117.434H288.65V114.21C288.65 113.577 288.604 113.143 288.515 112.908C288.426 112.669 288.269 112.477 288.048 112.332C287.833 112.188 287.573 112.116 287.268 112.116C286.899 112.116 286.564 112.224 286.256 112.441C285.953 112.658 285.731 112.948 285.589 113.309C285.447 113.671 285.377 114.275 285.377 115.122V117.434H284.625V114.411C284.625 113.698 284.579 113.215 284.49 112.962C284.403 112.705 284.248 112.501 284.028 112.349C283.807 112.193 283.546 112.116 283.243 112.116C282.892 112.116 282.565 112.222 282.257 112.436C281.954 112.646 281.727 112.93 281.579 113.288C281.435 113.646 281.363 114.194 281.363 114.932V117.434H280.609V111.529ZM301.432 110.932L300.804 111.416C300.457 110.963 300.041 110.621 299.553 110.39C299.068 110.155 298.536 110.037 297.954 110.037C297.318 110.037 296.729 110.191 296.188 110.498C295.645 110.802 295.224 111.213 294.926 111.73C294.629 112.244 294.481 112.823 294.481 113.467C294.481 114.44 294.812 115.252 295.477 115.903C296.147 116.555 296.988 116.88 298.002 116.88C299.119 116.88 300.052 116.442 300.804 115.567L301.432 116.045C301.035 116.551 300.538 116.944 299.943 117.222C299.35 117.497 298.687 117.635 297.954 117.635C296.561 117.635 295.46 117.17 294.655 116.24C293.979 115.455 293.641 114.507 293.641 113.396C293.641 112.228 294.049 111.245 294.865 110.449C295.687 109.65 296.711 109.25 297.943 109.25C298.687 109.25 299.358 109.399 299.958 109.695C300.558 109.988 301.051 110.401 301.432 110.932ZM302.93 117.434V109.451H303.104L308.403 115.561V109.451H309.19V117.434H309.011L303.754 111.399V117.434H302.93ZM311.017 109.451H311.82V112.799H315.873V109.451H316.676V117.434H315.873V113.581H311.82V117.434H311.017V109.451Z" fill="#1A154B"/>
</g>
</g>
<defs>
<filter id="filter0_d_50_127" x="204.746" y="79.3794" width="31.4094" height="41.2267" filterUnits="userSpaceOnUse" color-interpolation-filters="sRGB">
<feFlood flood-opacity="0" result="BackgroundImageFix"/>
<feColorMatrix in="SourceAlpha" type="matrix" values="0 0 0 0 0 0 0 0 0 0 0 0 0 0 0 0 0 0 127 0" result="hardAlpha"/>
<feOffset dy="4"/>
<feGaussianBlur stdDeviation="2"/>
<feComposite in2="hardAlpha" operator="out"/>
<feColorMatrix type="matrix" values="0 0 0 0 0 0 0 0 0 0 0 0 0 0 0 0 0 0 0.25 0"/>
<feBlend mode="normal" in2="BackgroundImageFix" result="effect1_dropShadow_50_127"/>
<feBlend mode="normal" in="SourceGraphic" in2="effect1_dropShadow_50_127" result="shape"/>
</filter>
<filter id="filter1_d_50_127" x="136.592" y="66.9976" width="29.4248" height="43.5825" filterUnits="userSpaceOnUse" color-interpolation-filters="sRGB">
<feFlood flood-opacity="0" result="BackgroundImageFix"/>
<feColorMatrix in="SourceAlpha" type="matrix" values="0 0 0 0 0 0 0 0 0 0 0 0 0 0 0 0 0 0 127 0" result="hardAlpha"/>
<feOffset dy="4"/>
<feGaussianBlur stdDeviation="2"/>
<feComposite in2="hardAlpha" operator="out"/>
<feColorMatrix type="matrix" values="0 0 0 0 0 0 0 0 0 0 0 0 0 0 0 0 0 0 0.25 0"/>
<feBlend mode="normal" in2="BackgroundImageFix" result="effect1_dropShadow_50_127"/>
<feBlend mode="normal" in="SourceGraphic" in2="effect1_dropShadow_50_127" result="shape"/>
</filter>
<filter id="filter2_d_50_127" x="293.317" y="79.3436" width="29.3313" height="31.2308" filterUnits="userSpaceOnUse" color-interpolation-filters="sRGB">
<feFlood flood-opacity="0" result="BackgroundImageFix"/>
<feColorMatrix in="SourceAlpha" type="matrix" values="0 0 0 0 0 0 0 0 0 0 0 0 0 0 0 0 0 0 127 0" result="hardAlpha"/>
<feOffset dy="4"/>
<feGaussianBlur stdDeviation="2"/>
<feComposite in2="hardAlpha" operator="out"/>
<feColorMatrix type="matrix" values="0 0 0 0 0 0 0 0 0 0 0 0 0 0 0 0 0 0 0.25 0"/>
<feBlend mode="normal" in2="BackgroundImageFix" result="effect1_dropShadow_50_127"/>
<feBlend mode="normal" in="SourceGraphic" in2="effect1_dropShadow_50_127" result="shape"/>
</filter>
<filter id="filter3_d_50_127" x="230.637" y="72.0244" width="20.2419" height="38.5638" filterUnits="userSpaceOnUse" color-interpolation-filters="sRGB">
<feFlood flood-opacity="0" result="BackgroundImageFix"/>
<feColorMatrix in="SourceAlpha" type="matrix" values="0 0 0 0 0 0 0 0 0 0 0 0 0 0 0 0 0 0 127 0" result="hardAlpha"/>
<feOffset dy="4"/>
<feGaussianBlur stdDeviation="2"/>
<feComposite in2="hardAlpha" operator="out"/>
<feColorMatrix type="matrix" values="0 0 0 0 0 0 0 0 0 0 0 0 0 0 0 0 0 0 0.25 0"/>
<feBlend mode="normal" in2="BackgroundImageFix" result="effect1_dropShadow_50_127"/>
<feBlend mode="normal" in="SourceGraphic" in2="effect1_dropShadow_50_127" result="shape"/>
</filter>
<filter id="filter4_d_50_127" x="190.87" y="67.038" width="14.8413" height="43.5859" filterUnits="userSpaceOnUse" color-interpolation-filters="sRGB">
<feFlood flood-opacity="0" result="BackgroundImageFix"/>
<feColorMatrix in="SourceAlpha" type="matrix" values="0 0 0 0 0 0 0 0 0 0 0 0 0 0 0 0 0 0 127 0" result="hardAlpha"/>
<feOffset dy="4"/>
<feGaussianBlur stdDeviation="2"/>
<feComposite in2="hardAlpha" operator="out"/>
<feColorMatrix type="matrix" values="0 0 0 0 0 0 0 0 0 0 0 0 0 0 0 0 0 0 0.25 0"/>
<feBlend mode="normal" in2="BackgroundImageFix" result="effect1_dropShadow_50_127"/>
<feBlend mode="normal" in="SourceGraphic" in2="effect1_dropShadow_50_127" result="shape"/>
</filter>
<filter id="filter5_d_50_127" x="246.861" y="79.5295" width="21.0535" height="31.048" filterUnits="userSpaceOnUse" color-interpolation-filters="sRGB">
<feFlood flood-opacity="0" result="BackgroundImageFix"/>
<feColorMatrix in="SourceAlpha" type="matrix" values="0 0 0 0 0 0 0 0 0 0 0 0 0 0 0 0 0 0 127 0" result="hardAlpha"/>
<feOffset dy="4"/>
<feGaussianBlur stdDeviation="2"/>
<feComposite in2="hardAlpha" operator="out"/>
<feColorMatrix type="matrix" values="0 0 0 0 0 0 0 0 0 0 0 0 0 0 0 0 0 0 0.25 0"/>
<feBlend mode="normal" in2="BackgroundImageFix" result="effect1_dropShadow_50_127"/>
<feBlend mode="normal" in="SourceGraphic" in2="effect1_dropShadow_50_127" result="shape"/>
</filter>
<filter id="filter6_d_50_127" x="262.371" y="79.379" width="31.396" height="31.4379" filterUnits="userSpaceOnUse" color-interpolation-filters="sRGB">
<feFlood flood-opacity="0" result="BackgroundImageFix"/>
<feColorMatrix in="SourceAlpha" type="matrix" values="0 0 0 0 0 0 0 0 0 0 0 0 0 0 0 0 0 0 127 0" result="hardAlpha"/>
<feOffset dy="4"/>
<feGaussianBlur stdDeviation="2"/>
<feComposite in2="hardAlpha" operator="out"/>
<feColorMatrix type="matrix" values="0 0 0 0 0 0 0 0 0 0 0 0 0 0 0 0 0 0 0.25 0"/>
<feBlend mode="normal" in2="BackgroundImageFix" result="effect1_dropShadow_50_127"/>
<feBlend mode="normal" in="SourceGraphic" in2="effect1_dropShadow_50_127" result="shape"/>
</filter>
<filter id="filter7_d_50_127" x="162.801" y="79.3806" width="31.1042" height="31.5244" filterUnits="userSpaceOnUse" color-interpolation-filters="sRGB">
<feFlood flood-opacity="0" result="BackgroundImageFix"/>
<feColorMatrix in="SourceAlpha" type="matrix" values="0 0 0 0 0 0 0 0 0 0 0 0 0 0 0 0 0 0 127 0" result="hardAlpha"/>
<feOffset dy="4"/>
<feGaussianBlur stdDeviation="2"/>
<feComposite in2="hardAlpha" operator="out"/>
<feColorMatrix type="matrix" values="0 0 0 0 0 0 0 0 0 0 0 0 0 0 0 0 0 0 0.25 0"/>
<feBlend mode="normal" in2="BackgroundImageFix" result="effect1_dropShadow_50_127"/>
<feBlend mode="normal" in="SourceGraphic" in2="effect1_dropShadow_50_127" result="shape"/>
</filter>
<filter id="filter8_d_50_127" x="25.1299" y="95.0817" width="34.4854" height="65.5591" filterUnits="userSpaceOnUse" color-interpolation-filters="sRGB">
<feFlood flood-opacity="0" result="BackgroundImageFix"/>
<feColorMatrix in="SourceAlpha" type="matrix" values="0 0 0 0 0 0 0 0 0 0 0 0 0 0 0 0 0 0 127 0" result="hardAlpha"/>
<feOffset dy="4"/>
<feGaussianBlur stdDeviation="2"/>
<feComposite in2="hardAlpha" operator="out"/>
<feColorMatrix type="matrix" values="0 0 0 0 0 0 0 0 0 0 0 0 0 0 0 0 0 0 0.25 0"/>
<feBlend mode="normal" in2="BackgroundImageFix" result="effect1_dropShadow_50_127"/>
<feBlend mode="normal" in="SourceGraphic" in2="effect1_dropShadow_50_127" result="shape"/>
</filter>
<filter id="filter9_d_50_127" x="77.8611" y="30" width="34.5952" height="58.7609" filterUnits="userSpaceOnUse" color-interpolation-filters="sRGB">
<feFlood flood-opacity="0" result="BackgroundImageFix"/>
<feColorMatrix in="SourceAlpha" type="matrix" values="0 0 0 0 0 0 0 0 0 0 0 0 0 0 0 0 0 0 127 0" result="hardAlpha"/>
<feOffset dy="4"/>
<feGaussianBlur stdDeviation="2"/>
<feComposite in2="hardAlpha" operator="out"/>
<feColorMatrix type="matrix" values="0 0 0 0 0 0 0 0 0 0 0 0 0 0 0 0 0 0 0.25 0"/>
<feBlend mode="normal" in2="BackgroundImageFix" result="effect1_dropShadow_50_127"/>
<feBlend mode="normal" in="SourceGraphic" in2="effect1_dropShadow_50_127" result="shape"/>
</filter>
<filter id="filter10_d_50_127" x="25" y="30.022" width="34.5054" height="52.5251" filterUnits="userSpaceOnUse" color-interpolation-filters="sRGB">
<feFlood flood-opacity="0" result="BackgroundImageFix"/>
<feColorMatrix in="SourceAlpha" type="matrix" values="0 0 0 0 0 0 0 0 0 0 0 0 0 0 0 0 0 0 127 0" result="hardAlpha"/>
<feOffset dy="4"/>
<feGaussianBlur stdDeviation="2"/>
<feComposite in2="hardAlpha" operator="out"/>
<feColorMatrix type="matrix" values="0 0 0 0 0 0 0 0 0 0 0 0 0 0 0 0 0 0 0.25 0"/>
<feBlend mode="normal" in2="BackgroundImageFix" result="effect1_dropShadow_50_127"/>
<feBlend mode="normal" in="SourceGraphic" in2="effect1_dropShadow_50_127" result="shape"/>
</filter>
<filter id="filter11_d_50_127" x="77.9707" y="92.564" width="34.4851" height="42.035" filterUnits="userSpaceOnUse" color-interpolation-filters="sRGB">
<feFlood flood-opacity="0" result="BackgroundImageFix"/>
<feColorMatrix in="SourceAlpha" type="matrix" values="0 0 0 0 0 0 0 0 0 0 0 0 0 0 0 0 0 0 127 0" result="hardAlpha"/>
<feOffset dy="4"/>
<feGaussianBlur stdDeviation="2"/>
<feComposite in2="hardAlpha" operator="out"/>
<feColorMatrix type="matrix" values="0 0 0 0 0 0 0 0 0 0 0 0 0 0 0 0 0 0 0.25 0"/>
<feBlend mode="normal" in2="BackgroundImageFix" result="effect1_dropShadow_50_127"/>
<feBlend mode="normal" in="SourceGraphic" in2="effect1_dropShadow_50_127" result="shape"/>
</filter>
<filter id="filter12_d_50_127" x="25" y="49.916" width="117.921" height="57.183" filterUnits="userSpaceOnUse" color-interpolation-filters="sRGB">
<feFlood flood-opacity="0" result="BackgroundImageFix"/>
<feColorMatrix in="SourceAlpha" type="matrix" values="0 0 0 0 0 0 0 0 0 0 0 0 0 0 0 0 0 0 127 0" result="hardAlpha"/>
<feOffset dy="4"/>
<feGaussianBlur stdDeviation="2"/>
<feComposite in2="hardAlpha" operator="out"/>
<feColorMatrix type="matrix" values="0 0 0 0 0 0 0 0 0 0 0 0 0 0 0 0 0 0 0.25 0"/>
<feBlend mode="normal" in2="BackgroundImageFix" result="effect1_dropShadow_50_127"/>
<feBlend mode="normal" in="SourceGraphic" in2="effect1_dropShadow_50_127" result="shape"/>
</filter>
<filter id="filter13_d_50_127" x="218.973" y="109.196" width="101.703" height="18.3002" filterUnits="userSpaceOnUse" color-interpolation-filters="sRGB">
<feFlood flood-opacity="0" result="BackgroundImageFix"/>
<feColorMatrix in="SourceAlpha" type="matrix" values="0 0 0 0 0 0 0 0 0 0 0 0 0 0 0 0 0 0 127 0" result="hardAlpha"/>
<feOffset dy="4"/>
<feGaussianBlur stdDeviation="2"/>
<feComposite in2="hardAlpha" operator="out"/>
<feColorMatrix type="matrix" values="0 0 0 0 0 0 0 0 0 0 0 0 0 0 0 0 0 0 0.25 0"/>
<feBlend mode="normal" in2="BackgroundImageFix" result="effect1_dropShadow_50_127"/>
<feBlend mode="normal" in="SourceGraphic" in2="effect1_dropShadow_50_127" result="shape"/>
</filter>
<clipPath id="clip0_50_127">
<rect width="290" height="123" fill="white" transform="translate(29 30)"/>
</clipPath>
</defs>
</svg>
