<svg width="32" height="32" viewBox="0 0 32 32" fill="none" xmlns="http://www.w3.org/2000/svg">
<path d="M17.88 16L23.6133 10.28C23.8644 10.0289 24.0054 9.6884 24.0054 9.33333C24.0054 8.97826 23.8644 8.63773 23.6133 8.38666C23.3622 8.13559 23.0217 7.99454 22.6666 7.99454C22.3116 7.99454 21.9711 8.13559 21.72 8.38666L16 14.12L10.28 8.38666C10.0289 8.13559 9.68838 7.99454 9.33331 7.99454C8.97824 7.99454 8.63772 8.13559 8.38665 8.38666C8.13557 8.63773 7.99452 8.97826 7.99452 9.33333C7.99452 9.6884 8.13557 10.0289 8.38665 10.28L14.12 16L8.38665 21.72C8.26168 21.8439 8.16248 21.9914 8.09479 22.1539C8.0271 22.3164 7.99225 22.4906 7.99225 22.6667C7.99225 22.8427 8.0271 23.0169 8.09479 23.1794C8.16248 23.3419 8.26168 23.4894 8.38665 23.6133C8.5106 23.7383 8.65806 23.8375 8.82054 23.9052C8.98302 23.9729 9.1573 24.0077 9.33331 24.0077C9.50933 24.0077 9.6836 23.9729 9.84608 23.9052C10.0086 23.8375 10.156 23.7383 10.28 23.6133L16 17.88L21.72 23.6133C21.8439 23.7383 21.9914 23.8375 22.1539 23.9052C22.3164 23.9729 22.4906 24.0077 22.6666 24.0077C22.8427 24.0077 23.0169 23.9729 23.1794 23.9052C23.3419 23.8375 23.4894 23.7383 23.6133 23.6133C23.7383 23.4894 23.8375 23.3419 23.9052 23.1794C23.9729 23.0169 24.0077 22.8427 24.0077 22.6667C24.0077 22.4906 23.9729 22.3164 23.9052 22.1539C23.8375 21.9914 23.7383 21.8439 23.6133 21.72L17.88 16Z" fill="#07628F"/>
</svg>
