<svg width="32" height="32" viewBox="0 0 32 32" fill="none" xmlns="http://www.w3.org/2000/svg">
<path d="M16 17.3333C18.2091 17.3333 20 15.5425 20 13.3333C20 11.1242 18.2091 9.33334 16 9.33334C13.7909 9.33334 12 11.1242 12 13.3333C12 15.5425 13.7909 17.3333 16 17.3333Z" stroke="white" stroke-width="2" stroke-linecap="round" stroke-linejoin="round"/>
<path d="M16 2.66667C13.1711 2.66667 10.458 3.79048 8.45757 5.79087C6.45718 7.79125 5.33337 10.5044 5.33337 13.3333C5.33337 15.856 5.86937 17.5067 7.33337 19.3333L16 29.3333L24.6667 19.3333C26.1307 17.5067 26.6667 15.856 26.6667 13.3333C26.6667 10.5044 25.5429 7.79125 23.5425 5.79087C21.5421 3.79048 18.829 2.66667 16 2.66667V2.66667Z" stroke="white" stroke-width="2" stroke-linecap="round" stroke-linejoin="round"/>
</svg>
