<svg width="32" height="32" viewBox="0 0 32 32" fill="none" xmlns="http://www.w3.org/2000/svg">
<g clip-path="url(#clip0_16_964)">
<path d="M8.268 28H2.463V9.306H8.268V28ZM5.362 6.756C3.506 6.756 2 5.218 2 3.362C2 2.47034 2.35421 1.6152 2.98471 0.984707C3.6152 0.35421 4.47034 0 5.362 0C6.25366 0 7.1088 0.35421 7.73929 0.984707C8.36979 1.6152 8.724 2.47034 8.724 3.362C8.724 5.218 7.218 6.756 5.362 6.756ZM29.994 28H24.202V18.9C24.202 16.731 24.158 13.95 21.184 13.95C18.166 13.95 17.703 16.306 17.703 18.744V28H11.904V9.306H17.471V11.856H17.552C18.327 10.387 20.22 8.837 23.044 8.837C28.919 8.837 29.999 12.706 29.999 17.731V28H29.994Z" fill="#268EA0"/>
</g>
<defs>
<clipPath id="clip0_16_964">
<rect width="32" height="32" fill="white"/>
</clipPath>
</defs>
</svg>
